<svg width="30" height="31" viewBox="0 0 30 31" fill="none" xmlns="http://www.w3.org/2000/svg">
<g clip-path="url(#clip0_636_882)">
<path d="M30 15.5913C30 23.0776 24.5075 29.2838 17.3375 30.4101V19.9563H20.8237L21.4875 15.6313H17.3375V12.8251C17.3375 11.6413 17.9175 10.4888 19.775 10.4888H21.6613V6.80631C21.6613 6.80631 19.9487 6.51381 18.3125 6.51381C14.895 6.51381 12.6625 8.58506 12.6625 12.3338V15.6301H8.86375V19.9551H12.6625V30.4088C5.49375 29.2813 0 23.0763 0 15.5913C0 7.30756 6.71625 0.591309 15 0.591309C23.2838 0.591309 30 7.30631 30 15.5913Z" fill="#F5F5F5"/>
</g>
<defs>
<clipPath id="clip0_636_882">
<rect width="30" height="30" fill="white" transform="translate(0 0.5)"/>
</clipPath>
</defs>
</svg>
