<svg width="30" height="31" viewBox="0 0 30 31" fill="none" xmlns="http://www.w3.org/2000/svg">
<g clip-path="url(#clip0_636_885)">
<path d="M15 3.2025C19.005 3.2025 19.48 3.2175 21.0613 3.29C22.6963 3.365 24.38 3.7375 25.5713 4.92875C26.7738 6.13125 27.135 7.79875 27.21 9.43875C27.2825 11.02 27.2975 11.495 27.2975 15.5C27.2975 19.505 27.2825 19.98 27.21 21.5613C27.1362 23.1875 26.755 24.8875 25.5713 26.0713C24.3688 27.2738 22.7025 27.635 21.0613 27.71C19.48 27.7825 19.005 27.7975 15 27.7975C10.995 27.7975 10.52 27.7825 8.93875 27.71C7.325 27.6362 5.6025 27.2463 4.42875 26.0713C3.2325 24.875 2.865 23.1913 2.79 21.5613C2.7175 19.98 2.7025 19.505 2.7025 15.5C2.7025 11.495 2.7175 11.02 2.79 9.43875C2.86375 7.81875 3.24875 6.10875 4.42875 4.92875C5.62875 3.72875 7.3025 3.365 8.93875 3.29C10.52 3.2175 10.995 3.2025 15 3.2025ZM15 0.5C10.9262 0.5 10.415 0.5175 8.815 0.59C6.49625 0.69625 4.19375 1.34125 2.5175 3.0175C0.835 4.7 0.19625 6.9975 0.09 9.315C0.0175 10.915 0 11.4262 0 15.5C0 19.5737 0.0175 20.085 0.09 21.685C0.19625 24.0012 0.84375 26.31 2.5175 27.9825C4.19875 29.6637 6.5 30.3037 8.815 30.41C10.415 30.4825 10.9262 30.5 15 30.5C19.0737 30.5 19.585 30.4825 21.185 30.41C23.5025 30.3037 25.8075 29.6575 27.4825 27.9825C29.1663 26.2987 29.8037 24.0025 29.91 21.685C29.9825 20.085 30 19.5737 30 15.5C30 11.4262 29.9825 10.915 29.91 9.315C29.8037 6.99625 29.1575 4.6925 27.4825 3.0175C25.8037 1.33875 23.4963 0.695 21.185 0.59C19.585 0.5175 19.0737 0.5 15 0.5Z" fill="#F5F5F5"/>
<path d="M15.0001 7.79736C10.7464 7.79736 7.29761 11.2461 7.29761 15.4999C7.29761 19.7536 10.7464 23.2024 15.0001 23.2024C19.2539 23.2024 22.7026 19.7536 22.7026 15.4999C22.7026 11.2461 19.2539 7.79736 15.0001 7.79736ZM15.0001 20.4999C12.2389 20.4999 10.0001 18.2611 10.0001 15.4999C10.0001 12.7386 12.2389 10.4999 15.0001 10.4999C17.7614 10.4999 20.0001 12.7386 20.0001 15.4999C20.0001 18.2611 17.7614 20.4999 15.0001 20.4999Z" fill="#F5F5F5"/>
<path d="M23.0075 9.29238C24.0016 9.29238 24.8075 8.4865 24.8075 7.49238C24.8075 6.49827 24.0016 5.69238 23.0075 5.69238C22.0134 5.69238 21.2075 6.49827 21.2075 7.49238C21.2075 8.4865 22.0134 9.29238 23.0075 9.29238Z" fill="#F5F5F5"/>
</g>
<defs>
<clipPath id="clip0_636_885">
<rect width="30" height="30" fill="white" transform="translate(0 0.5)"/>
</clipPath>
</defs>
</svg>
