<svg width="118" height="101" viewBox="0 0 118 101" fill="none" xmlns="http://www.w3.org/2000/svg">
<g clip-path="url(#clip0_608_326)">
<path d="M54.4437 73.6475H52.2062C52.2062 73.6475 51.9214 79.363 52.1655 81.8941C52.2184 82.442 52.2136 82.7677 52.4096 83.2821H59.3254C59.6914 82.4975 59.5695 81.0776 59.5695 81.0776L54.4437 80.996V73.6475Z" fill="white"/>
<path fill-rule="evenodd" clip-rule="evenodd" d="M29.3025 83.2821C29.3025 82.6289 33.574 73.7292 33.574 73.7292H35.6895C35.8522 73.7292 40.1238 83.2821 40.1238 83.2821H37.7236L36.8286 81.4859L32.5163 81.5267L31.8654 83.2821H29.3025ZM33.3706 79.2813L34.5911 76.5869L35.9743 79.2813H33.3706Z" fill="white"/>
<path fill-rule="evenodd" clip-rule="evenodd" d="M22.7122 98.4689C22.7122 97.8435 26.9516 89.3242 26.9516 89.3242H29.0512C29.2127 89.3242 33.4521 98.4689 33.4521 98.4689H31.0699L30.1817 96.7493L25.9018 96.7885L25.2558 98.4689H22.7122ZM26.7497 94.6387L27.961 92.0594L29.3337 94.6387H26.7497Z" fill="white"/>
<path fill-rule="evenodd" clip-rule="evenodd" d="M43.6223 98.4689C43.6223 97.8435 47.8617 89.3242 47.8617 89.3242H49.9613C50.1228 89.3242 54.3622 98.4689 54.3622 98.4689H51.9801L51.0918 96.7493L46.812 96.7885L46.166 98.4689H43.6223ZM47.6599 94.6387L48.8711 92.0594L50.2439 94.6387H47.6599Z" fill="white"/>
<path d="M87.111 73.7292H84.9142C84.9142 73.7292 84.8735 76.8134 84.8735 80.0978C84.8735 81.1593 85.1176 83.2005 85.1176 83.2005C87.4772 83.2005 87.111 83.1188 87.111 83.1188V73.7292Z" fill="white"/>
<path d="M50.2129 25.8009C49.8682 25.9492 49.2991 25.7459 48.9111 25.9642C48.6659 26.1022 48.539 26.238 48.4229 26.4949C48.3106 26.7434 48.3547 26.9164 48.3416 27.1889H58.5933C58.7967 25.8009 57.9017 24.2496 57.9017 24.2496C57.0881 23.9228 56.4779 23.2289 55.6235 23.2289C55.3852 23.2289 55.258 23.4224 55.0947 23.5966C54.4438 24.2906 54.1997 26.6584 53.5488 26.4133C53.1512 26.2635 52.9226 25.325 53.3454 24.8213C53.5158 24.6184 54.0082 24.6204 53.9149 24.372C53.8347 24.1584 53.4298 24.4615 53.3454 24.2496C53.0199 23.4331 52.8165 22.8618 52.8165 22.2902C52.8165 21.7187 53.1827 22.3127 57.5356 22.2086C57.6983 21.0657 58.1865 18.7521 57.9017 18.0853C57.9017 16.7741 57.5082 15.3258 57.5356 13.8395C57.5663 12.1741 58.1056 10.6763 57.9017 9.716C57.6169 9.06281 57.5356 8.92703 57.3728 9.06306C57.2828 9.13834 57.4523 9.30278 57.5763 9.51213C57.6764 9.68114 57.7347 9.89375 57.6983 10.002C57.6432 10.1425 57.5763 10.4511 57.4542 10.5327C57.3322 10.5327 57.2915 10.2878 57.2101 10.1653C57.1288 10.0428 56.9352 10.0861 56.8033 10.1653C56.6307 10.269 56.8033 9.93597 56.6406 9.93597C56.4779 9.93597 56.071 10.6552 55.8676 10.5327C55.6796 10.4196 57.7902 8.48326 57.6576 8.32821C57.4135 8.04269 56.3151 8.94034 55.5829 9.716C54.1569 11.2265 52.6538 14.1253 51.6774 16.5745C50.6754 19.0883 49.9281 20.412 49.4806 23.1473C49.4013 23.6325 49.3179 24.3779 49.44 24.5353C49.7247 24.9027 50.9859 25.1885 50.7011 25.4743C50.4977 25.6784 50.4977 25.6784 50.2129 25.8009Z" fill="white"/>
<path d="M30.181 22.4283C30.2799 22.6652 30.181 22.9742 30.181 22.9742C30.181 22.9742 29.4891 24.5739 29.1398 25.633C28.7341 26.8632 28.5533 27.5633 28.2728 28.8283C28.1064 29.5785 27.7794 31.5286 27.7794 31.5286C27.7794 31.5286 27.5866 32.4551 27.4805 33.5987C27.3908 34.5654 27.4805 35.7457 27.2263 35.8339C27.1127 35.8734 26.1937 35.5036 25.4026 34.9338C24.424 34.229 23.9388 33.8496 23.5639 33.4337C23.3539 33.2008 23.8921 29.7504 24.7041 26.8983C25.5162 24.0461 26.0908 22.6611 26.0908 22.6611C26.0908 22.6611 27.1482 19.9113 28.0815 18.2812C28.9882 16.6977 29.6186 15.8768 30.7603 14.4547C32.0552 12.8419 33.7888 10.9152 35.5621 9.45946C38.1949 7.29824 38.0818 7.49763 40.8445 5.9113C43.6074 4.32497 48.1805 3.04974 48.1805 3.04974C48.1805 3.04974 51.1114 2.40771 52.4689 2.22731C53.894 2.03791 55.0052 2.01742 55.0087 2.12458C55.0121 2.23173 52.9589 2.33685 52.9324 2.50726C52.9059 2.67768 54.1812 2.936 54.1977 3.10405C54.2059 3.18696 52.6169 3.62496 50.9177 4.00067C50.2227 4.15433 48.7778 4.55308 47.4419 4.96833C46.8696 5.14617 45.5589 5.6407 44.3802 6.27824C42.8068 7.12924 42.4629 7.37691 41.3838 8.23922C40.1271 9.24342 39.1973 10.1014 38.2918 10.9472C36.9725 12.2933 35.8629 13.6661 34.352 15.5087C33.9022 16.0573 33.3979 16.8365 32.9514 17.512C32.4095 18.3319 31.9161 18.9001 31.9161 18.9001C31.9161 18.9001 31.7017 18.977 31.5586 18.9822C31.3886 18.9883 31.4705 19.0052 30.978 18.8562C30.4855 18.7072 30.1094 18.2219 29.8124 18.2812C29.5155 18.3405 28.2905 21.0672 28.3849 21.3588C28.4793 21.6503 30.0822 22.1913 30.181 22.4283Z" fill="white"/>
<path d="M39.7629 18.3644C39.7629 18.3644 41.3983 15.3527 43.8203 12.7133C46.6592 9.61966 50.3846 6.77218 50.9172 5.9151C46.1207 5.9151 38.1632 12.7387 34.7715 19.0687C31.1321 25.173 30.1698 31.0847 29.7925 37.4369L34.621 38.8671C34.4708 33.3837 36.666 23.5587 39.7629 18.3644Z" fill="white"/>
<path d="M39.3019 59.097C40.8685 61.4478 41.3985 62.1495 43.8204 64.7887C45.4808 66.2933 46.1716 66.8843 46.7043 67.7414C42.4694 67.7414 38.7364 64.4989 34.7717 58.4334C31.6782 54.4883 29.7333 46.8702 29.7778 39.8427L34.7036 41.5072C34.5787 47.0292 35.759 53.7807 39.3019 59.097Z" fill="white"/>
<path fill-rule="evenodd" clip-rule="evenodd" d="M54.3247 6.74058C53.7499 6.27335 50.8011 7.87567 47.3275 11.8552C43.8538 15.8347 41.606 20.4534 40.1897 25.6017C40.0806 26.0572 39.9723 26.5047 39.8657 26.9454C38.7684 31.4806 37.8447 35.2984 38.0047 39.8514L43.8519 40.6775C43.8519 36.8977 44.298 31.3236 45.0761 27.1799C46.0502 23.111 47.1208 20.0423 48.9458 16.2189C49.7925 14.445 51.135 12.3775 52.2737 10.6239C53.5893 8.5979 54.6328 6.99104 54.3247 6.74058ZM50.1314 10.4103C50.0554 10.3321 50.1218 10.2766 50.2024 10.2093C50.2333 10.1834 50.2663 10.1558 50.2941 10.1245C50.3984 10.0074 50.6036 9.94005 50.6196 9.9612C50.6616 10.017 50.5912 10.0802 50.5152 10.1486C50.4798 10.1803 50.4433 10.2132 50.4162 10.247C50.3137 10.3749 50.1981 10.4789 50.1314 10.4103ZM52.0054 8.52989C51.5274 9.00778 50.9634 9.5714 51.0671 9.67543C51.1591 9.76777 51.8164 9.11743 52.3399 8.59929C52.4065 8.5334 52.4708 8.46971 52.5316 8.40986C53.0942 7.85667 53.9148 6.98104 53.8741 6.89939C53.8334 6.81775 52.8333 7.6923 52.2469 8.28739C52.1718 8.36357 52.09 8.44538 52.0054 8.52989Z" fill="white"/>
<path d="M55.4692 69.8901C54.8723 70.2668 51.2932 68.9273 47.6862 65.7193C44.0791 62.5113 41.745 58.7881 40.2743 54.638C39.2742 50.9077 39.9753 53.7503 39.2742 50.9077L44.9114 51.6676C44.9114 51.6676 45.155 52.7389 45.3483 53.3658C46.3599 56.6457 47.4716 59.1195 49.3667 62.2016C51.2617 65.2838 56.066 69.5135 55.4692 69.8901Z" fill="white"/>
<path d="M76.5338 62.8316C76.5338 62.8316 77.4288 62.9949 77.5915 63.7705C77.022 65.1177 74.5867 66.27 73.1979 66.9548C69.2518 68.6695 65.9159 69.8125 60.5866 69.8942C59.773 69.5676 58.8285 68.7935 57.9551 68.0698C54.2387 64.9901 51.7765 61.3509 50.1623 57.2548C49.6884 56.0521 49.5213 56.0521 48.8704 53.4801L57.983 53.5618C57.983 53.5618 58.1051 54.5033 58.2271 55.5239C58.5526 56.5445 58.9578 57.6456 58.5932 57.8917C58.5119 58.2183 55.9083 58.0958 55.5828 58.3816C55.4608 58.4888 55.3387 58.6265 55.2167 58.8307V60.3004C55.4508 60.8112 55.9489 61.0352 56.1524 61.076C56.6812 61.076 57.0006 59.9095 57.2508 60.0962C58.3085 60.0962 71.0418 59.9304 72.669 59.8105C72.669 59.8105 79.6663 57.8645 80.6426 57.4835C81.3749 57.1977 84.5074 55.5239 85.6871 55.9321C86.338 56.1574 84.4667 58.3816 83.531 59.2389C82.1722 59.8758 82.156 59.8054 80.4392 60.5045C77.6322 61.6476 69.3738 63.5255 68.1534 63.6888C66.5261 64.1787 57.7796 64.6278 57.4542 64.7502C57.4135 65.4034 57.4542 66.0133 57.6169 66.2582C57.8203 66.3399 58.878 66.0974 59.0814 66.0974C61.7257 65.6485 64.4107 65.7301 68.1534 65.281C72.8613 64.1886 75.6388 63.1582 76.5338 62.8316Z" fill="white"/>
<path d="M44.5288 49.698C44.5288 49.698 42.0222 49.4918 38.6115 48.9145C38.0362 46.3166 37.9053 45.9249 37.9053 42.485L41.0032 42.8559L43.9601 43.3506C44.0973 46.7084 44.2411 47.1619 44.5288 49.698Z" fill="white"/>
<path d="M62.3766 50.2142C62.3766 50.2142 58.7426 50.1813 54.9726 50.2142C51.2025 50.2471 49.2771 50.2142 47.6499 50.1326C47.2024 47.6015 47.2024 47.4487 47.2024 44.0089L50.823 44.3355C50.823 44.3355 52.3595 44.4713 53.3453 44.4988C54.6793 44.536 55.4689 44.5172 56.8032 44.5396C58.4883 44.5678 59.2675 44.5962 60.9527 44.5804L64.5734 44.4988C64.6044 45.2576 64.6954 45.2336 64.8175 45.5194C64.6882 45.8542 64.2479 46.2542 64.1259 46.2542C63.9225 46.4175 62.0918 46.4175 61.807 46.4584C61.6976 46.474 59.4882 46.4992 59.2034 46.4175C58.9593 46.3767 58.5932 45.3969 58.4305 45.4378C58.0644 45.5602 57.4541 46.6625 57.4134 46.8258C57.3728 46.9891 57.7389 47.6015 57.9423 47.7648C58.105 47.8954 62.4278 47.7354 62.3766 47.8056V50.2142Z" fill="white"/>
<path fill-rule="evenodd" clip-rule="evenodd" d="M55.176 41.3554C58.9594 41.437 62.7428 41.3554 62.7428 41.3554L64.1666 41.2737C64.1848 41.2487 64.4974 41.2243 65.0201 41.1837C65.9647 41.1101 67.5951 40.9831 69.4145 40.7022C71.047 40.4501 72.1755 40.2798 72.9856 40.1575C74.8 39.8836 75.017 39.8509 75.7202 39.6816C75.891 39.6404 76.0585 39.6016 76.2201 39.5641C77.0208 39.3782 77.68 39.2253 77.917 38.9875C78.0521 38.8519 77.9948 38.4587 77.9191 37.9389C77.8352 37.3636 77.7288 36.6334 77.8356 35.9257C77.8733 35.6761 78.436 35.2388 78.7128 35.0236C78.7526 34.9928 78.7864 34.9664 78.812 34.9459C78.7306 34.0478 78.3645 33.3946 77.9983 33.2721C77.8288 33.2154 76.4384 33.5438 74.7557 33.9411C72.804 34.4021 70.4593 34.9557 69.1704 35.1092L65.7532 35.4766C65.1287 35.4824 64.1705 35.5046 63.1259 35.5289C61.3517 35.57 59.3284 35.6168 58.2678 35.5991C57.4377 35.5852 57.1208 35.5886 56.6962 35.5931C56.4384 35.5959 56.1407 35.5991 55.6642 35.5991H50.9858H47.4465C46.999 36.4156 46.999 38.2527 46.999 41.0696C48.6263 41.1513 51.3926 41.2737 55.176 41.3554ZM56.7219 36.089C53.4971 36.1326 48.2195 35.9665 48.4636 36.089C48.8704 36.2931 51.5981 36.2307 53.5894 36.2931C56.193 36.3748 57.5254 36.4305 60.0985 36.3748C62.149 36.3304 63.3031 36.3491 65.3464 36.1707C67.3587 35.9949 68.5644 35.881 70.5536 35.5289C72.2168 35.2345 73.0839 35.0133 74.7438 34.701C76.0456 34.456 77.8356 34.0884 77.8356 33.7212C77.8356 33.3539 75.0562 34.4006 73.2386 34.701C71.2859 35.0236 70.1056 35.2877 68.072 35.5289C66.2533 35.7446 65.2227 35.9139 63.3937 36.0074C60.7908 36.1403 59.328 36.0537 56.7219 36.089Z" fill="white"/>
<path fill-rule="evenodd" clip-rule="evenodd" d="M62.4578 33.9661C62.4578 33.9661 58.7558 34.0886 55.0538 33.9661C51.3518 33.8437 48.7482 33.5987 47.7718 33.3538C47.6905 30.7818 47.9752 29.0264 48.1786 28.6589L50.6195 28.5773H52.979C52.979 28.5773 54.597 28.6314 55.5827 28.6589C56.162 28.6751 56.8151 28.7038 57.478 28.733C58.3414 28.771 59.2215 28.8097 59.9763 28.8222C60.3963 28.8293 60.8307 28.8437 61.2819 28.8586C62.6406 28.9038 64.1507 28.9538 65.8751 28.8222C67.9581 28.6633 70.7903 28.0577 72.3841 27.6879C72.3841 27.6879 72.4606 27.8729 72.3841 27.9241C72.14 28.0874 68.5337 29.0277 65.9971 29.1488C63.4342 29.2713 60.8049 29.1488 57.478 29.1488C54.2595 29.1488 48.8278 29.1321 49.2363 29.1488C51.2297 29.2305 52.1605 29.353 54.0368 29.353C57.6574 29.353 63.2308 29.353 63.2308 29.353C63.2308 29.353 65.6699 29.4477 67.2176 29.2713C68.7624 29.0953 69.6138 28.9521 71.123 28.5773C72.1808 28.3146 73.808 27.8153 73.808 27.8153C73.9465 27.8544 74.1428 27.7736 74.3577 27.6852C74.4696 27.6391 74.5865 27.591 74.703 27.5567L74.7429 27.5449C75.4565 27.3343 76.6557 26.8627 76.6557 26.8627L83.2054 24.0866L85.1174 23.3517L86.9888 22.4944L88.9114 21.2697C88.9114 21.2697 90.1213 24.1682 89.9585 24.5765C89.7958 24.9847 89.511 25.5154 88.3313 26.5361C88.3191 26.547 88.3052 26.559 88.2898 26.5721C87.9155 26.8974 86.7724 27.8915 84.4258 29.108C82.0069 30.3621 78.8282 31.3286 77.7033 31.6706L77.6727 31.68C74.9877 32.4964 74.2148 32.6597 68.6821 33.5579L65.5903 33.8437L62.4578 33.9661ZM73.6625 27.6852C73.6625 27.6852 73.3997 27.726 73.2384 27.6879C73.1148 27.6586 72.9403 27.5567 72.9403 27.5567C73.3577 27.4566 73.6046 27.3934 73.6046 27.3934C73.6099 27.5233 73.6301 27.6181 73.6625 27.6852Z" fill="white"/>
<path fill-rule="evenodd" clip-rule="evenodd" d="M76.0862 48.9487C79.2187 48.4997 85.443 46.4993 85.443 46.4993L89.6332 44.7846C90.948 43.9341 91.2344 43.7578 91.4427 43.514C91.5241 43.4185 91.5932 43.3126 91.7079 43.1517C92.0253 42.7059 92.2775 36.6606 92.1554 36.3748C92.0635 36.1595 89.8716 37.7177 89.1564 38.2263C88.9896 38.3445 88.9034 38.406 88.9416 38.3752L86.0939 39.7632C85.4397 40.0227 85.0305 40.1851 84.6163 40.3359C83.9239 40.5884 83.2193 40.8082 81.3342 41.3962C78.6025 42.1873 76.265 42.5721 74.4887 42.8646C72.3234 43.2211 70.9923 43.4402 70.7976 44.0906C70.5899 44.7846 70.7976 45.8053 70.7976 45.8053C71.4638 46.7567 71.4683 46.8659 71.4922 47.4489C71.5062 47.7915 71.527 48.2977 71.6926 49.2345C71.9201 49.2459 72.1086 49.2573 72.2732 49.2673C73.2859 49.3286 73.3917 49.335 76.0862 48.9487ZM76.2083 43.07C74.8044 43.5687 71.896 43.764 71.9367 43.9681C71.9774 44.1723 75.8007 43.6428 79.3001 42.7434C80.7654 42.3668 84.4666 41.2737 85.443 40.8655C86.4193 40.4572 87.4331 40.1431 88.4534 39.5999C90.2141 38.6628 92.4182 37.3137 91.7079 37.3137C91.5452 37.3137 88.5136 39.3429 86.2973 40.2939C84.2697 41.1641 82.8434 41.5091 81.0226 41.9497C80.4905 42.0785 79.9245 42.2154 79.3001 42.376C78.1465 42.6726 77.1464 42.9399 76.2083 43.07Z" fill="white"/>
<path fill-rule="evenodd" clip-rule="evenodd" d="M84.2225 37.2728C86.8668 36.2522 87.7211 35.6399 87.7211 35.6399L89.9586 34.211C91.1498 33.2782 91.4069 33.1572 91.5607 32.9561C91.6225 32.8756 91.6672 32.7823 91.7486 32.6188C91.9927 32.1289 91.3418 27.1483 90.6502 27.1483C90.3654 27.1483 85.7684 30.2102 85.7684 30.2102C84.9174 30.5761 83.893 31.0002 82.6848 31.5001C81.8711 31.8368 80.9742 32.208 79.9917 32.6188C79.8665 32.6712 79.9917 35.0683 79.9917 35.0683C80.073 36.6605 80.073 36.6605 80.2764 38.5384C80.9446 38.5384 81.5368 38.3098 83.9614 37.3738C84.046 37.341 84.133 37.3074 84.2225 37.2728ZM82.6848 31.9248C81.8436 32.1962 80.7239 32.395 80.5612 32.7005C80.5069 32.8023 81.2814 32.7439 82.3512 32.4147C83.6733 32.0079 85.4462 31.2472 86.6634 30.5776C87.1394 30.3158 87.8839 29.8019 88.4534 29.4753C89.267 28.863 90.7722 28.0057 90.6502 27.8424C90.3858 27.4882 89.7479 28.1863 88.7789 28.9855C88.0466 29.3937 87.0776 30.0301 86.338 30.4143C85.1069 31.0541 83.8206 31.5585 82.6848 31.9248Z" fill="white"/>
<path d="M62.3765 47.8056V50.2142C62.3765 50.2142 62.8579 50.5331 63.0681 50.8266C63.1842 50.9888 63.2474 51.0868 63.3121 51.2757C63.3853 51.4888 63.3935 51.8472 63.3935 51.8472L63.5155 57.6443L66.8514 57.8076C66.8514 57.8076 67.7871 58.7466 67.9905 58.7466C68.1939 58.7466 69.1193 56.5813 69.3737 56.542C69.9025 56.4604 70.3552 56.4357 71.0009 56.3379C71.5802 56.2501 71.9015 56.1705 72.4655 56.0113C72.9491 55.8748 73.255 55.8623 73.6859 55.6031C74.0717 55.3709 74.5402 54.8274 74.5402 54.8274C74.5402 54.8274 73.1571 51.5206 72.4655 51.4798C71.7739 51.439 69.7398 51.8472 67.9091 52.0513C67.4986 52.0971 67.3803 52.1738 66.8921 52.0922C66.8921 52.0922 66.8514 51.5614 66.8107 51.194C66.7701 50.8266 66.7294 50.1326 66.7294 50.1326C67.0955 49.9693 68.2346 50.2959 69.0482 50.0509C69.7141 49.8505 70.2687 49.6019 70.5128 48.9895C70.6348 48.6833 70.6755 48.1322 70.5128 48.0913C70.0246 47.9689 69.0075 48.0913 67.7057 48.0097C67.3942 47.9902 67.1635 47.8056 66.8514 47.8056H62.3765Z" fill="white"/>
<path d="M23.5183 39.5115C23.5183 43.0544 24.73 46.759 26.2089 49.9761C27.6878 53.1931 29.0861 55.6568 29.496 55.6568C29.9058 55.6568 30.7204 55.0212 30.7204 55.0212C29.4459 52.5466 29.1154 51.1053 28.3307 48.599C27.807 45.7875 27.5079 43.987 27.2578 40.975L25.3997 40.4202L23.5183 39.5115Z" fill="white"/>
<path d="M29.8082 40.9912C28.2016 40.5638 26.6207 40.0909 25.0752 39.4621C24.2275 39.1172 21.062 37.6078 21.062 37.6078C21.062 37.6078 19.3406 36.565 18.3889 35.7305C17.7115 35.1365 17.0967 34.4251 16.6742 33.628C16.2519 32.831 16.0477 31.9358 16.0827 31.0337C16.1177 30.1316 16.3904 29.255 16.8732 28.4933C17.2494 27.603 18.8997 26.1697 19.699 25.7555C20.4983 25.3413 22.9441 24.1898 23.1626 24.5343C23.381 24.8787 22.8973 25.2075 22.8973 25.2075C22.2265 25.6146 20.0734 26.7888 19.4649 27.2429C18.8565 27.6969 18.1612 28.4883 17.7995 29.0591C17.4376 29.63 17.4628 30.3577 17.4366 31.0337C17.577 31.7678 17.9314 32.3761 18.2479 32.9734C20.2967 34.9462 20.2518 34.8428 22.2124 36.0795C23.8285 37.0989 25.7216 38.0488 25.7216 38.0488C25.7216 38.0488 29.1386 39.4621 29.8082 39.8097V40.9912Z" fill="white"/>
<path fill-rule="evenodd" clip-rule="evenodd" d="M88.7788 51.1939C86.7041 52.2062 78.0389 54.8273 76.7371 54.9498C75.8999 55.0286 75.6432 54.9385 75.4312 54.8642C75.3137 54.8229 75.2099 54.7865 75.0285 54.7865H74.459C72.883 54.7865 72.0181 51.5614 72.0181 51.5614L75.9235 50.7449L80.6425 49.8059C83.7343 49.5201 87.3143 48.4179 87.3143 48.4179C87.3143 48.4179 91.4638 47.2448 93.9047 46.295C94.2399 46.1645 94.5597 46.0513 94.8721 45.9403C96.4196 45.3919 97.8069 44.8999 100.17 42.6616C100.27 42.5086 100.363 42.37 100.45 42.2407C100.97 41.473 101.268 41.0327 101.268 39.8447C101.231 38.9226 100.997 37.8065 100.495 37.0278C99.9931 36.2492 99.02 35.1569 98.1763 34.5375C98.0583 34.451 97.9061 34.3377 97.728 34.2051C96.6304 33.389 94.5532 31.845 93.5386 31.3532C93.5386 31.3532 91.7486 30.4551 92.2368 29.9243C92.725 29.3936 96.549 31.639 97.6474 32.3738C98.7556 32.9388 101.194 34.997 101.716 36.2113C102.385 37.2504 102.724 38.6143 102.773 39.8447C102.822 41.0752 102.773 42.4167 101.919 43.4373C101.333 44.5246 100.17 45.4785 99.2747 46.1725C97.8972 47.2404 93.9047 48.9894 93.9047 48.9894C93.9047 48.9894 91.7079 49.7651 88.7788 51.1939ZM75.7201 52.9494C75.3946 52.8856 74.9685 52.6092 74.9065 52.1737C74.8445 51.7384 76.9473 52.2223 76.7371 52.4595C76.4117 52.8269 76.1734 53.0384 75.7201 52.9494Z" fill="white"/>
<path d="M26.9305 12.7992C26.9305 13.5192 26.4114 14.1028 25.6894 14.1028C24.9674 14.1028 24.5144 13.5192 24.5144 12.7992C24.5144 12.0793 24.835 11.2631 25.557 11.2631C26.279 11.2631 26.9305 12.0793 26.9305 12.7992Z" fill="white"/>
<path d="M11.6185 36.8884C11.3694 38.5022 10.6333 39.3773 8.90629 39.7468C7.23452 39.7468 6.02246 38.6741 6.02246 36.6903C6.02247 35.1724 7.39169 33.8539 9.00246 34.0245C9.24248 34.0245 9.8632 33.9563 9.96507 34.1722C9.8632 34.4564 9.02996 34.3306 9.11572 34.7064C9.44418 35.536 10.3648 36.34 10.7918 36.2065C11.1429 36.3315 10.973 35.5473 11.1995 35.4337C11.494 35.6383 11.6185 36.2556 11.6185 36.8884Z" fill="white"/>
<path d="M32.7604 60.5428C32.7604 61.58 31.8048 62.4208 30.7263 62.4208C29.6478 62.4208 29.0584 61.3185 29.3838 59.8896C29.3838 58.8525 29.9534 58.7057 31.0924 58.6241C32.1709 58.6241 32.7604 59.5057 32.7604 60.5428Z" fill="white"/>
<path d="M61.7664 54.3783C61.7664 55.2802 61.4489 56.1746 60.5053 56.1746C59.5616 56.1746 58.7966 55.2394 58.7966 54.3375C58.7966 53.4356 59.2034 53.0311 60.0171 52.6229C60.9607 52.6229 61.7664 53.4764 61.7664 54.3783Z" fill="white"/>
<path d="M39.5543 24.8622C39.3916 25.4337 39.1068 26.6993 38.1711 26.6176C37.7236 26.6585 37.805 25.6787 37.8863 24.9846C38.0084 24.2906 38.5372 23.8416 38.9441 23.9232C39.5136 24.1682 39.5543 24.3435 39.5543 24.8622Z" fill="white"/>
<path d="M63.5563 59.1548C63.4343 59.3998 62.336 59.3998 60.8306 59.3998C59.3253 59.3998 58.3898 59.4406 58.105 59.1548C58.5118 58.7466 59.3253 58.8282 60.8306 58.8282C62.336 58.8282 63.3936 58.9099 63.5563 59.1548Z" fill="white"/>
<path d="M68.1125 45.3153C68.1125 45.6827 67.4192 46.6217 66.3632 46.6217C65.3072 46.6217 64.5732 45.6219 64.5732 44.5396C64.7766 43.8456 65.2241 42.8658 66.3632 42.7025C66.5404 42.7025 67.2204 42.7815 67.1362 42.9883C67.0141 43.1924 66.5858 43.1081 66.3632 43.2741C66.1795 43.4111 66.2412 43.6823 66.2819 43.7231C66.5065 43.9486 66.8514 43.8456 67.1362 43.7639C67.3803 43.6415 67.6123 43.4679 67.7057 43.519C68.1532 43.7639 68.1125 44.8424 68.1125 45.3153Z" fill="white"/>
<path d="M80.8866 55.5214C81.2527 56.8278 78.0389 57.3177 74.5403 58.2567C72.1401 58.7874 70.6348 59.0732 70.228 58.9099C70.228 58.5255 70.228 57.4402 70.228 57.4402C71.0334 57.1773 73.6453 57.0319 75.3539 56.9911C75.9234 56.4196 80.8866 54.9352 80.8866 55.5214Z" fill="white"/>
<path d="M96.9152 58.4608C96.7525 59.3589 96.4677 59.6855 95.532 59.9305C94.633 59.9305 93.9048 59.3627 93.9048 58.4608C93.9048 57.5589 94.633 56.8278 95.532 56.8278C96.4311 56.8278 96.9152 57.5589 96.9152 58.4608Z" fill="white"/>
<path d="M98.0136 51.4228C98.0136 51.964 98.0136 52.4026 97.2406 52.4026C96.7468 52.4026 96.305 52.2963 96.427 51.4228C96.427 50.8817 96.5491 50.2618 97.2406 50.443C97.7695 50.5817 98.0136 50.8817 98.0136 51.4228Z" fill="white"/>
<path d="M86.0938 54.46C86.0938 54.7306 85.255 55.0723 84.8734 55.0723C84.4918 55.0723 84.4666 54.7306 84.4666 54.46C84.4666 54.1894 84.4918 53.9293 84.8734 53.9293C85.2802 54.0926 86.0938 54.1894 86.0938 54.46Z" fill="white"/>
<path fill-rule="evenodd" clip-rule="evenodd" d="M81.8224 67.1973C82.8785 67.1973 83.653 66.2114 83.653 65.1968C83.653 64.1823 83.2462 63.4414 81.8224 63.4414C80.5612 63.4414 79.9917 64.1762 79.9917 65.2785C79.9917 66.3808 81.0901 67.1973 81.8224 67.1973ZM82.636 64.0538C82.4822 63.9073 82.1259 63.9313 82.1071 64.0129C82.0827 64.1174 82.1372 64.1491 82.2129 64.1931C82.243 64.2109 82.2772 64.2306 82.3105 64.2579C82.4627 64.3823 82.7702 64.462 82.7987 64.3804C82.8443 64.2515 82.7475 64.1598 82.649 64.0659C82.6441 64.0618 82.6401 64.0578 82.636 64.0538Z" fill="white"/>
<path d="M96.3049 37.7219C96.3049 38.263 95.532 39.1508 94.9624 38.9466C94.1488 38.9466 93.9861 38.5079 93.9861 37.9669C93.9861 37.4258 94.545 36.8646 95.0845 36.8646C95.6239 36.8646 96.427 36.293 96.3049 37.7219Z" fill="white"/>
<path d="M98.8678 27.5974C98.9492 28.9038 97.6368 27.4535 95.4099 26.8217C93.183 26.1899 91.3011 25.6226 91.4231 25.1888C91.5451 24.7548 93.5491 25.0876 95.776 25.7195C97.5392 26.2197 98.461 26.536 98.7865 26.9442C98.8686 27.0834 98.8581 27.4358 98.8678 27.5974Z" fill="white"/>
<path d="M92.6843 21.1471C92.6843 21.5981 92.6436 21.9636 91.9927 22.0044C91.5884 22.0044 91.1384 21.5981 91.1384 21.1471C91.1384 20.5756 91.5477 20.3715 91.9521 20.3715C92.3564 20.3715 92.6843 20.5756 92.6843 21.1471Z" fill="white"/>
<path d="M92.1993 16.3327C92.1993 16.8634 91.9552 17.2308 91.467 17.2308C91.0627 17.2308 90.6941 17.0267 90.7348 16.3327C90.7348 15.8817 90.8161 15.4754 91.467 15.5162C92.0773 15.5162 92.1993 15.8817 92.1993 16.3327Z" fill="white"/>
<path d="M89.1044 13.5946C89.1044 14.0455 88.5324 14.5335 88.128 14.5335C87.6399 14.5744 87.0703 14.2069 87.0703 13.6354C87.0703 13.1845 87.4771 12.574 88.128 12.574C88.5324 12.574 89.1044 12.9414 89.1044 13.5946Z" fill="white"/>
<path d="M69.701 25.6653C69.701 25.939 69.9718 27.3757 69.701 27.4571C68.898 27.5899 67.128 27.4979 65.6384 27.5793C64.7717 27.5793 62.6592 27.62 61.9821 27.5793C61.305 27.5385 61.1696 27.3757 61.0342 27.0091C61.0342 26.7441 61.0342 26.1539 61.1696 25.991C61.4404 25.8282 61.4785 25.5522 62.6592 25.5522C63.4717 25.5023 66.5187 25.258 67.3312 25.1765C68.076 25.0544 68.4145 24.8211 68.8208 24.9321C69.5656 25.1358 69.701 25.6653 69.701 25.6653Z" fill="white"/>
<path d="M21.3288 73.7291H19.2134L19.2947 83.2821H21.4915V79.5262H25.397V83.2821H27.431C27.431 83.2821 27.6751 73.7906 27.5938 73.7291C27.5124 73.6676 25.4783 73.7291 25.4783 73.7291C25.2342 73.8924 25.2342 77.4033 25.2342 77.4033C24.624 77.3217 21.3288 77.3217 21.3288 77.3217V73.7291Z" fill="white"/>
<path d="M76.8008 89.4058H74.7031L74.7838 98.4689H77.1247C77.1247 98.4689 77.1404 97.5022 77.1247 96.8767C77.1089 96.2513 76.8815 95.2642 76.8815 95.2642L76.8008 92.0594L78.8665 94.9171H80.5657L82.1804 92.0594L82.1373 95.2642C82.1373 95.2642 82.0185 96.1451 82.0103 96.7134C81.9998 97.4009 82.0103 98.4689 82.0103 98.4689H84.2617C84.2617 98.4689 84.3422 89.4899 84.2617 89.4319C84.1811 89.3732 82.1804 89.4058 82.1804 89.4058C81.9379 89.5601 79.7161 92.7534 79.7161 92.7534L76.8008 89.4058Z" fill="white"/>
<path d="M42.6459 73.7291C42.52 73.5658 39.9609 73.6883 39.9609 73.6883C39.9609 73.6883 43.8257 79.5262 44.1105 79.6078V83.323H46.1038L46.1445 79.6078L50.0093 73.7291C50.0093 73.7291 47.7718 73.5658 47.487 73.6883C47.3921 73.7291 45.4529 76.7501 45.1682 77.5258C45.1259 77.6408 45.0054 76.7909 42.6459 73.7291Z" fill="white"/>
<path d="M87.9758 89.4891C87.8497 89.3315 85.2803 89.4499 85.2803 89.4499C85.2803 89.4499 89.1605 95.0633 89.4469 95.1417V98.7138H91.4484L91.4891 95.1417L95.3693 89.4891C95.3693 89.4891 93.1229 89.3315 92.8365 89.4499C92.7413 89.4891 90.7942 92.3933 90.5087 93.1396C90.4664 93.2498 90.3451 92.4334 87.9758 89.4891Z" fill="white"/>
<path d="M117.439 93.9994L107.553 94.3113L97.7288 94.593V93.4066L117.439 93.9994Z" fill="white"/>
<path d="M0.5 93.5911L10.3856 93.2801L20.2102 92.9984V94.1847L0.5 93.5911Z" fill="white"/>
<path d="M98.7865 81.2409C98.2577 81.8124 96.9713 82.7326 96.0202 83.1188C95.0691 83.505 94.0227 83.4079 93.0521 83.1572C92.0822 82.9065 91.2271 82.3448 90.6096 81.5533C89.9912 80.7616 89.7024 79.78 89.6739 78.7506C89.6454 77.7213 89.835 76.6027 90.4062 75.7296C90.9773 74.8565 91.8536 74.1526 92.8064 73.77C93.7591 73.3875 94.7802 73.4405 95.7501 73.6949C96.7191 73.9493 98.0543 74.5048 98.6238 75.0356L97.1186 76.6686C96.7932 76.4236 95.6687 75.9432 95.1659 75.8112C94.6631 75.6794 94.0325 75.7762 93.5386 75.9745C93.0448 76.1729 92.6143 76.5017 92.3182 76.9543C92.022 77.407 91.856 77.972 91.8707 78.5057C91.8853 79.0394 92.1107 79.6361 92.4313 80.0465C92.8064 80.3428 93.2539 80.7102 93.6981 80.8782C94.2009 81.0083 94.8811 81.0776 95.3286 80.9143C95.8575 80.8327 96.7932 80.3836 97.1186 80.0978L98.7865 81.2409Z" fill="white"/>
<path d="M43.1251 96.8677C42.6065 97.4205 41.3366 98.3023 40.392 98.6648C39.4475 99.0265 38.3988 98.9122 37.4235 98.6469C36.4481 98.3823 35.5819 97.8132 34.9492 97.0229C34.3165 96.2325 34.0095 95.2609 33.9616 94.2476C33.9137 93.2335 34.083 92.1362 34.6383 91.2878C35.1935 90.4395 36.0576 89.7626 37.0035 89.4042C37.9493 89.0457 38.9726 89.1168 39.947 89.3854C40.9213 89.654 42.2677 90.2256 42.8474 90.7579L41.3716 92.337C41.0415 92.0904 39.9072 91.5965 39.4021 91.4568C38.8969 91.318 38.2674 91.4013 37.777 91.5875C37.2865 91.7736 36.8619 92.0888 36.574 92.5289C36.2861 92.969 36.1301 93.5217 36.155 94.0476C36.1798 94.5726 36.4161 95.1645 36.7442 95.5744C37.1251 95.8724 37.5797 96.2423 38.027 96.4162C38.5328 96.5534 39.2146 96.6342 39.6593 96.4823C40.1869 96.4113 41.1147 95.9867 41.4351 95.7116L43.1251 96.8677Z" fill="white"/>
<path d="M82.4326 82.139C81.9444 82.5065 81.4311 82.651 80.4798 83.0372C79.5286 83.4234 77.9549 83.4103 76.9848 83.1588C76.0146 82.9082 75.1592 82.3464 74.5414 81.555C73.9237 80.7633 73.5522 79.739 73.5233 78.7097C73.4945 77.6803 73.686 76.5868 74.3385 75.7313C74.9096 74.8582 75.7863 74.1542 76.7387 73.7717C77.7541 73.4433 78.6898 73.6066 79.682 73.6966C80.6512 73.951 81.7002 74.4639 82.2699 74.913L80.8866 76.5052C80.5612 76.2602 79.682 75.7703 79.0966 75.7703C78.6085 75.7703 77.9648 75.7778 77.471 75.9762C76.9771 76.1746 76.5466 76.5034 76.2506 76.956C75.9544 77.4087 75.7881 77.9736 75.8031 78.5074C75.8179 79.041 76.0432 79.6377 76.3634 80.0482C76.6251 80.3835 77.1067 80.8278 77.5507 80.9959C78.0538 81.1259 79.2594 81.3225 80.2357 80.9142C80.4798 80.4652 80.3171 80.2202 80.2357 79.6078C80.2249 79.5262 78.6491 79.9344 78.5678 79.6895C78.5678 79.2404 78.371 78.3147 78.7712 77.8932C79.1714 77.4717 82.3106 77.8116 82.4326 77.934V82.139Z" fill="white"/>
<path fill-rule="evenodd" clip-rule="evenodd" d="M66.16 83.4046C69.0358 83.4046 71.6926 80.3836 71.2858 78.424C71.2858 75.7409 68.7636 73.4842 66.16 73.4842C63.2841 73.4842 60.9934 75.7409 60.9934 78.424C60.9934 81.3634 63.2841 83.4046 66.16 83.4046ZM63.1495 78.424C63.0682 79.6079 64.2072 81.0776 66.16 81.0776C67.8686 81.0776 68.8743 79.9122 68.8856 78.424C68.899 76.6685 67.6512 75.8236 66.16 75.7296C64.8658 75.6479 63.2617 76.791 63.1495 78.424Z" fill="white"/>
<path d="M85.6766 18.2147H82.99L83.9241 17.9495C84.0079 17.9053 84.1323 17.8612 84.1747 17.7286C84.2162 17.596 84.2576 17.5076 84.2162 17.375L83.5962 14.9398C83.6002 14.8968 83.5978 14.8536 83.5905 14.8121L83.1731 13.0886C83.1527 13.0467 83.1234 12.9949 83.0893 12.9472L81.0017 4.74172C81.0129 4.68135 81.0139 4.6191 81.0028 4.55997L80.5856 2.83656C80.5598 2.78208 80.5182 2.71093 80.4705 2.65392L79.876 0.31779C79.8343 0.0968236 79.5839 -0.0357458 79.3752 0.00847854L75.3273 1.15743C75.1186 1.20161 74.9934 1.46675 75.0352 1.68771L75.9353 5.2342C75.6005 5.05767 75.2241 4.95772 74.8265 4.95772H62.7244C62.5574 4.95772 62.4323 5.04612 62.3488 5.22286C62.2653 5.35543 62.2653 5.53217 62.3488 5.66474L62.8496 6.50433C63.2251 7.21135 63.2251 8.05099 62.8496 8.75801L62.4806 9.37667H61.4724C61.3055 9.37667 61.1803 9.46509 61.0968 9.64186C61.0133 9.77438 61.0133 9.95115 61.0968 10.0837L61.5976 10.9233C61.9732 11.6303 61.9732 12.4699 61.5976 13.1769L61.0968 14.0167C61.0133 14.1492 61.0133 14.326 61.0968 14.4586C61.1803 14.5911 61.3055 14.6795 61.4724 14.6795H62.4542L62.8496 15.3424C63.2251 16.0494 63.2251 16.889 62.8496 17.596L62.4806 18.2147H61.4724C61.222 18.2147 61.0551 18.3915 61.0551 18.6566V21.308C61.0551 21.5732 61.222 21.7499 61.4724 21.7499H85.6766C85.9272 21.7499 86.094 21.5732 86.094 21.308V18.6566C86.094 18.3915 85.9272 18.2147 85.6766 18.2147ZM75.3779 13.8617C75.8109 13.3845 76.0784 12.738 76.0784 12.0281C76.0784 11.3181 75.8109 10.6716 75.3779 10.1944C76.013 10.0417 76.5583 9.63207 76.9098 9.07465L78.3486 14.7437L78.7075 16.2261C78.7172 16.2465 78.728 16.2664 78.7398 16.2855L79.2294 18.2147H76.6883C77.0869 17.7446 77.3304 17.1246 77.3304 16.4471C77.3304 15.1894 76.492 14.1296 75.3779 13.8617ZM80.043 4.38327L76.8296 5.31126L76.6209 4.47167L79.8343 3.54368L80.043 4.38327ZM80.2665 5.21991L82.1845 12.9058L78.9575 13.8218L77.3126 7.29897C77.2841 7.04346 77.2215 6.79868 77.1288 6.57026L77.0266 6.16509L80.2665 5.21991ZM79.2083 14.6795L82.4083 13.7995L82.6174 14.639L79.417 15.5633L79.2083 14.6795ZM80.043 18.1264L79.6052 16.3905L82.8265 15.4763L83.2561 17.1983L80.043 18.1264ZM79.2083 0.980639L79.6241 2.6462L76.372 3.56921L75.9532 1.90862L79.2083 0.980639ZM63.559 6.01828L63.4755 5.84154H74.8265C75.5145 5.84154 76.1086 6.28818 76.3633 6.9211L76.4824 7.39047C76.4909 7.4622 76.4958 7.53506 76.4958 7.60911C76.4958 8.58124 75.7446 9.37667 74.8265 9.37667H73.5746H63.4755L63.559 9.19998C64.1015 8.22778 64.1015 6.99049 63.559 6.01828ZM62.307 10.4373L62.2236 10.2605H62.7244H73.5746C74.4926 10.2605 75.2438 11.0559 75.2438 12.0281C75.2438 13.0003 74.4926 13.7957 73.5746 13.7957H62.7244H62.2236L62.307 13.619C62.8496 12.6467 62.8496 11.4095 62.307 10.4373ZM63.559 14.8562L63.4755 14.6795H73.5746H74.8265C75.7446 14.6795 76.4958 15.475 76.4958 16.4471C76.4958 17.4193 75.7446 18.2147 74.8265 18.2147H63.4755L63.559 18.0379C64.1015 17.0657 64.1015 15.8284 63.559 14.8562ZM85.2592 20.8661H61.8897V19.0985H62.7244H74.8265H79.7926H79.8761H85.2592V20.8661Z" fill="white"/>
<path d="M78.219 8.3901C78.2064 8.34299 78.2122 8.29098 78.2395 8.24501L78.8693 7.18469C78.9238 7.09289 79.0433 7.0607 79.1363 7.11282L80.2286 7.72456C80.3215 7.77668 80.3527 7.89318 80.2982 7.98484C80.2437 8.07665 80.1242 8.10883 80.0313 8.05671L79.1072 7.53918L78.5759 8.43346C78.5214 8.52531 78.4019 8.55748 78.309 8.50531C78.2627 8.47926 78.2316 8.43713 78.219 8.3901Z" fill="white"/>
<path d="M78.9306 11.0523C78.9181 11.0052 78.9239 10.9532 78.9511 10.9073C79.0056 10.8154 79.1252 10.7832 79.2181 10.8354L80.1242 11.3428L80.6659 10.4304C80.7204 10.3387 80.8399 10.3064 80.9328 10.3586C81.0257 10.4105 81.0569 10.527 81.0025 10.6189L80.362 11.6973C80.3359 11.7413 80.2931 11.7737 80.243 11.7872C80.1929 11.8007 80.1398 11.7943 80.0951 11.7692L79.0209 11.1675C78.9744 11.1414 78.9432 11.0994 78.9306 11.0523Z" fill="white"/>
<path d="M78.2306 9.37193C78.2244 9.34899 78.2226 9.32425 78.2261 9.29886C78.2402 9.19418 78.3383 9.11923 78.445 9.13148L80.7432 9.39684C80.8499 9.40925 80.9253 9.50339 80.9111 9.6088C80.897 9.71347 80.799 9.78843 80.6922 9.77618L78.394 9.51082C78.3129 9.50151 78.2501 9.44468 78.2306 9.37193Z" fill="white"/>
<path d="M67.8289 7.1198H68.1452V8.49151H67.8289V7.1198ZM67.2079 8.49151H66.8916V7.1198H67.2079V8.49151ZM67.8523 7.92911H67.1845V7.66065H67.8523V7.92911ZM68.7518 8.49151V7.37847H68.3144V7.1198H69.5056V7.37847H69.0681V8.49151H68.7518ZM69.6758 8.49151V7.1198H69.9374L70.5193 8.08784H70.3807L70.9528 7.1198H71.2125L71.2164 8.49151H70.9196L70.9177 7.57639H70.9724L70.5154 8.3465H70.3729L69.9062 7.57639H69.9726V8.49151H69.6758ZM71.5408 8.49151V7.1198H71.8571V8.23285H72.5425V8.49151H71.5408Z" fill="white"/>
<path d="M67.2203 12.7608C67.1149 12.7608 67.0166 12.7438 66.9254 12.7098C66.8356 12.6746 66.7575 12.6249 66.6911 12.5609C66.6247 12.4969 66.5727 12.4218 66.5349 12.3356C66.4984 12.2493 66.4802 12.1546 66.4802 12.0514C66.4802 11.9482 66.4984 11.8535 66.5349 11.7673C66.5727 11.6811 66.6247 11.6059 66.6911 11.5419C66.7588 11.4779 66.8376 11.4289 66.9274 11.395C67.0172 11.3597 67.1155 11.342 67.2223 11.342C67.3407 11.342 67.4475 11.363 67.5425 11.4048C67.6388 11.4453 67.7195 11.5053 67.7846 11.585L67.5816 11.7732C67.5347 11.7196 67.4826 11.6797 67.4253 11.6536C67.3681 11.6262 67.3056 11.6125 67.2379 11.6125C67.1741 11.6125 67.1155 11.6229 67.0621 11.6438C67.0088 11.6647 66.9625 11.6948 66.9235 11.734C66.8844 11.7732 66.8538 11.8195 66.8317 11.8731C66.8109 11.9267 66.8005 11.9861 66.8005 12.0514C66.8005 12.1167 66.8109 12.1762 66.8317 12.2297C66.8538 12.2833 66.8844 12.3297 66.9235 12.3689C66.9625 12.4081 67.0088 12.4381 67.0621 12.459C67.1155 12.4799 67.1741 12.4904 67.2379 12.4904C67.3056 12.4904 67.3681 12.4773 67.4253 12.4512C67.4826 12.4237 67.5347 12.3826 67.5816 12.3277L67.7846 12.5158C67.7195 12.5955 67.6388 12.6563 67.5425 12.6981C67.4475 12.7399 67.3401 12.7608 67.2203 12.7608ZM68.2875 12.5041V11.5988H68.5394V12.5041H68.2875ZM67.9496 12.171V11.9319H68.8791V12.171H67.9496ZM69.4641 12.5041V11.5988H69.716V12.5041H69.4641ZM69.1262 12.171V11.9319H70.0557V12.171H69.1262Z" fill="white"/>
<path d="M69.9689 20.4299C69.8996 20.4299 69.8357 20.4172 69.7771 20.3917C69.7195 20.3653 69.6721 20.328 69.635 20.28L69.7668 20.1213C69.7951 20.1585 69.8249 20.1869 69.8562 20.2065C69.8874 20.2251 69.9211 20.2345 69.9572 20.2345C70.0539 20.2345 70.1022 20.1776 70.1022 20.064V19.5746H69.7419V19.3835H70.338V20.0507C70.338 20.1781 70.3067 20.2732 70.2443 20.3359C70.1818 20.3986 70.09 20.4299 69.9689 20.4299ZM71.0395 20.4123V20.258L71.0249 20.2242V19.9479C71.0249 19.8989 71.0097 19.8607 70.9795 19.8332C70.9502 19.8058 70.9048 19.7921 70.8433 19.7921C70.8013 19.7921 70.7598 19.7989 70.7188 19.8127C70.6787 19.8254 70.6446 19.843 70.6162 19.8656L70.5342 19.7054C70.5772 19.675 70.6289 19.6515 70.6895 19.6348C70.75 19.6182 70.8115 19.6098 70.874 19.6098C70.9941 19.6098 71.0873 19.6383 71.1537 19.6951C71.2201 19.7519 71.2533 19.8406 71.2533 19.9611V20.4123H71.0395ZM70.7993 20.424C70.7378 20.424 70.6851 20.4138 70.6411 20.3932C70.5972 20.3716 70.5635 20.3427 70.5401 20.3065C70.5167 20.2702 70.5049 20.2296 70.5049 20.1845C70.5049 20.1375 70.5162 20.0963 70.5386 20.061C70.5621 20.0258 70.5987 19.9983 70.6485 19.9787C70.6983 19.9582 70.7632 19.9479 70.8433 19.9479H71.0527V20.0816H70.8681C70.8144 20.0816 70.7773 20.0904 70.7568 20.1081C70.7373 20.1257 70.7276 20.1477 70.7276 20.1742C70.7276 20.2036 70.7388 20.2271 70.7612 20.2447C70.7847 20.2614 70.8164 20.2697 70.8564 20.2697C70.8945 20.2697 70.9287 20.2609 70.959 20.2433C70.9892 20.2247 71.0112 20.1977 71.0249 20.1624L71.06 20.2683C71.0434 20.3192 71.0131 20.3579 70.9692 20.3844C70.9253 20.4108 70.8686 20.424 70.7993 20.424ZM71.6596 20.4123L71.3287 19.6216H71.5645L71.8398 20.3021H71.7226L72.0082 19.6216H72.2279L71.8954 20.4123H71.6596ZM72.7786 20.4123V20.258L72.764 20.2242V19.9479C72.764 19.8989 72.7489 19.8607 72.7186 19.8332C72.6893 19.8058 72.6439 19.7921 72.5824 19.7921C72.5404 19.7921 72.4989 19.7989 72.4579 19.8127C72.4179 19.8254 72.3837 19.843 72.3554 19.8656L72.2734 19.7054C72.3163 19.675 72.3681 19.6515 72.4286 19.6348C72.4891 19.6182 72.5507 19.6098 72.6131 19.6098C72.7332 19.6098 72.8265 19.6383 72.8929 19.6951C72.9593 19.7519 72.9925 19.8406 72.9925 19.9611V20.4123H72.7786ZM72.5384 20.424C72.4769 20.424 72.4242 20.4138 72.3803 20.3932C72.3363 20.3716 72.3027 20.3427 72.2792 20.3065C72.2558 20.2702 72.2441 20.2296 72.2441 20.1845C72.2441 20.1375 72.2553 20.0963 72.2778 20.061C72.3012 20.0258 72.3378 19.9983 72.3876 19.9787C72.4374 19.9582 72.5023 19.9479 72.5824 19.9479H72.7918V20.0816H72.6073C72.5536 20.0816 72.5165 20.0904 72.496 20.1081C72.4765 20.1257 72.4667 20.1477 72.4667 20.1742C72.4667 20.2036 72.4779 20.2271 72.5004 20.2447C72.5238 20.2614 72.5555 20.2697 72.5956 20.2697C72.6336 20.2697 72.6678 20.2609 72.6981 20.2433C72.7284 20.2247 72.7503 20.1977 72.764 20.1624L72.7991 20.2683C72.7825 20.3192 72.7523 20.3579 72.7083 20.3844C72.6644 20.4108 72.6078 20.424 72.5384 20.424ZM73.4644 20.424C73.397 20.424 73.3321 20.4162 73.2696 20.4005C73.2081 20.3839 73.1593 20.3633 73.1231 20.3388L73.1993 20.1742C73.2354 20.1967 73.2779 20.2154 73.3267 20.23C73.3765 20.2438 73.4253 20.2506 73.4732 20.2506C73.5259 20.2506 73.563 20.2443 73.5845 20.2315C73.6069 20.2188 73.6181 20.2011 73.6181 20.1786C73.6181 20.16 73.6094 20.1463 73.5918 20.1375C73.5752 20.1277 73.5527 20.1203 73.5244 20.1154C73.4961 20.1105 73.4648 20.1056 73.4307 20.1007C73.3975 20.0958 73.3638 20.0894 73.3296 20.0816C73.2955 20.0728 73.2642 20.0601 73.2359 20.0434C73.2076 20.0267 73.1846 20.0042 73.1671 19.9758C73.1505 19.9474 73.1422 19.9106 73.1422 19.8656C73.1422 19.8156 73.1563 19.7715 73.1846 19.7333C73.2139 19.6951 73.2559 19.6652 73.3106 19.6436C73.3653 19.6211 73.4307 19.6098 73.5068 19.6098C73.5605 19.6098 73.6152 19.6157 73.6709 19.6275C73.7265 19.6392 73.7729 19.6564 73.81 19.6789L73.7338 19.8421C73.6958 19.8195 73.6572 19.8043 73.6181 19.7965C73.5801 19.7877 73.543 19.7833 73.5068 19.7833C73.4561 19.7833 73.419 19.7901 73.3955 19.8038C73.3721 19.8176 73.3604 19.8352 73.3604 19.8567C73.3604 19.8763 73.3687 19.891 73.3853 19.9008C73.4029 19.9106 73.4258 19.9185 73.4541 19.9244C73.4824 19.9302 73.5132 19.9356 73.5464 19.9405C73.5805 19.9444 73.6147 19.9508 73.6489 19.9596C73.6831 19.9684 73.7138 19.9812 73.7412 19.9978C73.7695 20.0135 73.7924 20.0356 73.81 20.064C73.8276 20.0914 73.8364 20.1277 73.8364 20.1727C73.8364 20.2217 73.8217 20.2653 73.7924 20.3035C73.7631 20.3408 73.7207 20.3702 73.665 20.3917C73.6103 20.4133 73.5434 20.424 73.4644 20.424ZM74.3581 20.424C74.2731 20.424 74.1974 20.4069 74.1311 20.3726C74.0647 20.3373 74.0124 20.2888 73.9743 20.2271C73.9372 20.1654 73.9187 20.0953 73.9187 20.0169C73.9187 19.9376 73.9372 19.8675 73.9743 19.8068C74.0124 19.7451 74.0647 19.697 74.1311 19.6627C74.1974 19.6275 74.2731 19.6098 74.3581 19.6098C74.441 19.6098 74.5133 19.6275 74.5748 19.6627C74.6363 19.697 74.6817 19.7465 74.711 19.8112L74.5338 19.9067C74.5133 19.8695 74.4874 19.8421 74.4562 19.8244C74.4259 19.8068 74.3927 19.798 74.3566 19.798C74.3175 19.798 74.2824 19.8068 74.2511 19.8244C74.2199 19.8421 74.195 19.867 74.1765 19.8994C74.1589 19.9317 74.1501 19.9709 74.1501 20.0169C74.1501 20.063 74.1589 20.1022 74.1765 20.1345C74.195 20.1669 74.2199 20.1918 74.2511 20.2095C74.2824 20.2271 74.3175 20.2359 74.3566 20.2359C74.3927 20.2359 74.4259 20.2276 74.4562 20.2109C74.4874 20.1933 74.5133 20.1654 74.5338 20.1272L74.711 20.2242C74.6817 20.2879 74.6363 20.3373 74.5748 20.3726C74.5133 20.4069 74.441 20.424 74.3581 20.424ZM74.8426 20.4123V19.6216H75.0608V19.845L75.03 19.7803C75.0535 19.7245 75.0911 19.6823 75.1428 19.6539C75.1945 19.6245 75.2575 19.6098 75.3317 19.6098V19.8215C75.322 19.8205 75.3132 19.82 75.3054 19.82C75.2976 19.819 75.2893 19.8185 75.2805 19.8185C75.218 19.8185 75.1672 19.8367 75.1282 19.8729C75.0901 19.9082 75.071 19.9635 75.071 20.039V20.4123H74.8426ZM75.469 20.4123V19.6216H75.6975V20.4123H75.469ZM75.5832 19.5114C75.5412 19.5114 75.5071 19.4991 75.4807 19.4746C75.4543 19.4501 75.4412 19.4198 75.4412 19.3835C75.4412 19.3473 75.4543 19.3169 75.4807 19.2924C75.5071 19.2679 75.5412 19.2556 75.5832 19.2556C75.6252 19.2556 75.6594 19.2674 75.6857 19.2909C75.7121 19.3135 75.7253 19.3428 75.7253 19.3791C75.7253 19.4173 75.7121 19.4492 75.6857 19.4746C75.6603 19.4991 75.6262 19.5114 75.5832 19.5114ZM76.3752 20.424C76.3088 20.424 76.2507 20.4093 76.2009 20.38C76.1511 20.3506 76.1121 20.306 76.0838 20.2462C76.0564 20.1855 76.0428 20.109 76.0428 20.0169C76.0428 19.9239 76.0559 19.8474 76.0823 19.7877C76.1087 19.7279 76.1467 19.6833 76.1965 19.6539C76.2463 19.6245 76.3059 19.6098 76.3752 19.6098C76.4494 19.6098 76.5158 19.627 76.5744 19.6613C76.6339 19.6946 76.6808 19.7416 76.715 19.8024C76.7501 19.8631 76.7677 19.9346 76.7677 20.0169C76.7677 20.1002 76.7501 20.1722 76.715 20.233C76.6808 20.2937 76.6339 20.3408 76.5744 20.3741C76.5158 20.4074 76.4494 20.424 76.3752 20.424ZM75.9095 20.6974V19.6216H76.1277V19.7833L76.1233 20.0184L76.138 20.2521V20.6974H75.9095ZM76.3357 20.2359C76.3737 20.2359 76.4074 20.2271 76.4367 20.2095C76.467 20.1918 76.4909 20.1669 76.5085 20.1345C76.527 20.1012 76.5363 20.062 76.5363 20.0169C76.5363 19.9709 76.527 19.9317 76.5085 19.8994C76.4909 19.867 76.467 19.8421 76.4367 19.8244C76.4074 19.8068 76.3737 19.798 76.3357 19.798C76.2976 19.798 76.2634 19.8068 76.2331 19.8244C76.2029 19.8421 76.179 19.867 76.1614 19.8994C76.1438 19.9317 76.135 19.9709 76.135 20.0169C76.135 20.062 76.1438 20.1012 76.1614 20.1345C76.179 20.1669 76.2029 20.1918 76.2331 20.2095C76.2634 20.2271 76.2976 20.2359 76.3357 20.2359ZM77.2429 20.424C77.1501 20.424 77.0779 20.4005 77.0261 20.3535C76.9744 20.3055 76.9485 20.2345 76.9485 20.1404V19.4467H77.177V20.1375C77.177 20.1708 77.1857 20.1967 77.2033 20.2153C77.2209 20.233 77.2448 20.2418 77.2751 20.2418C77.3112 20.2418 77.342 20.232 77.3673 20.2124L77.4289 20.3741C77.4054 20.3907 77.3771 20.4035 77.3439 20.4123C77.3117 20.4201 77.278 20.424 77.2429 20.424ZM76.8269 19.8156V19.6392H77.3732V19.8156H76.8269Z" fill="white"/>
<path d="M65.8337 17.0647V15.693H66.4254C66.5478 15.693 66.6532 15.7132 66.7417 15.7537C66.8303 15.7929 66.8986 15.8497 66.9468 15.9242C66.995 15.9987 67.019 16.0875 67.019 16.1907C67.019 16.2926 66.995 16.3808 66.9468 16.4552C66.8986 16.5297 66.8303 16.5872 66.7417 16.6277C66.6532 16.6669 66.5478 16.6865 66.4254 16.6865H66.0095L66.1501 16.5434V17.0647H65.8337ZM66.1501 16.5787L66.0095 16.4278H66.4078C66.5055 16.4278 66.5784 16.4069 66.6265 16.3651C66.6747 16.3233 66.6988 16.2652 66.6988 16.1907C66.6988 16.1149 66.6747 16.0561 66.6265 16.0143C66.5784 15.9725 66.5055 15.9516 66.4078 15.9516H66.0095L66.1501 15.8007V16.5787ZM67.3695 17.4605C67.3149 17.4605 67.2608 17.452 67.2075 17.435C67.1541 17.418 67.1105 17.3945 67.0766 17.3645L67.1879 17.147C67.2114 17.1679 67.2381 17.1842 67.268 17.196C67.2993 17.2077 67.3298 17.2136 67.3598 17.2136C67.4027 17.2136 67.4366 17.2031 67.4613 17.1822C67.4874 17.1627 67.5108 17.1293 67.5316 17.0823L67.5863 16.953L67.6097 16.9197L67.9866 16.0104H68.2795L67.805 17.1293C67.7712 17.2143 67.7321 17.2809 67.6878 17.3292C67.6449 17.3776 67.5967 17.4115 67.5433 17.4311C67.4913 17.4507 67.4333 17.4605 67.3695 17.4605ZM67.5492 17.1058L67.0805 16.0104H67.3949L67.7581 16.8922L67.5492 17.1058ZM68.862 17.0803C68.7383 17.0803 68.642 17.049 68.573 16.9863C68.504 16.9223 68.4695 16.8276 68.4695 16.7021V15.7772H68.7741V16.6982C68.7741 16.7426 68.7858 16.7773 68.8093 16.8021C68.8327 16.8256 68.8646 16.8374 68.905 16.8374C68.9531 16.8374 68.9941 16.8243 69.028 16.7982L69.11 17.0137C69.0787 17.0359 69.041 17.0529 68.9967 17.0647C68.9538 17.0751 68.9089 17.0803 68.862 17.0803ZM68.3074 16.2691V16.0339H69.0358V16.2691H68.3074ZM69.9195 15.9947C70.0029 15.9947 70.0771 16.0117 70.1422 16.0457C70.2085 16.0784 70.2606 16.1293 70.2984 16.1985C70.3361 16.2665 70.355 16.354 70.355 16.4611V17.0647H70.0504V16.5082C70.0504 16.4232 70.0315 16.3605 69.9937 16.32C69.9573 16.2795 69.9052 16.2593 69.8375 16.2593C69.7894 16.2593 69.7458 16.2697 69.7067 16.2906C69.6689 16.3102 69.639 16.3409 69.6169 16.3827C69.596 16.4245 69.5856 16.4781 69.5856 16.5434V17.0647H69.281V15.6107H69.5856V16.3024L69.5173 16.2142C69.555 16.1437 69.6091 16.0895 69.6794 16.0516C69.7497 16.0137 69.8297 15.9947 69.9195 15.9947ZM71.1386 17.0803C71.0267 17.0803 70.9271 17.0568 70.8398 17.0098C70.7539 16.9628 70.6856 16.8988 70.6348 16.8178C70.5853 16.7355 70.5606 16.6421 70.5606 16.5375C70.5606 16.4317 70.5853 16.3383 70.6348 16.2573C70.6856 16.175 70.7539 16.111 70.8398 16.0653C70.9271 16.0183 71.0267 15.9947 71.1386 15.9947C71.2493 15.9947 71.3482 16.0183 71.4354 16.0653C71.5226 16.111 71.591 16.1744 71.6405 16.2554C71.6899 16.3364 71.7147 16.4304 71.7147 16.5375C71.7147 16.6421 71.6899 16.7355 71.6405 16.8178C71.591 16.8988 71.5226 16.9628 71.4354 17.0098C71.3482 17.0568 71.2493 17.0803 71.1386 17.0803ZM71.1386 16.8295C71.1894 16.8295 71.2349 16.8178 71.2753 16.7943C71.3157 16.7707 71.3475 16.7374 71.371 16.6943C71.3944 16.6499 71.4061 16.5976 71.4061 16.5375C71.4061 16.4761 71.3944 16.4239 71.371 16.3808C71.3475 16.3377 71.3157 16.3044 71.2753 16.2808C71.2349 16.2573 71.1894 16.2456 71.1386 16.2456C71.0878 16.2456 71.0423 16.2573 71.0019 16.2808C70.9616 16.3044 70.929 16.3377 70.9043 16.3808C70.8809 16.4239 70.8691 16.4761 70.8691 16.5375C70.8691 16.5976 70.8809 16.6499 70.9043 16.6943C70.929 16.7374 70.9616 16.7707 71.0019 16.7943C71.0423 16.8178 71.0878 16.8295 71.1386 16.8295ZM72.5568 15.9947C72.6402 15.9947 72.7144 16.0117 72.7795 16.0457C72.8458 16.0784 72.8979 16.1293 72.9357 16.1985C72.9734 16.2665 72.9923 16.354 72.9923 16.4611V17.0647H72.6877V16.5082C72.6877 16.4232 72.6688 16.3605 72.631 16.32C72.5946 16.2795 72.5425 16.2593 72.4748 16.2593C72.4267 16.2593 72.3831 16.2697 72.344 16.2906C72.3063 16.3102 72.2763 16.3409 72.2542 16.3827C72.2333 16.4245 72.2229 16.4781 72.2229 16.5434V17.0647H71.9183V16.0104H72.2093V16.3024L72.1546 16.2142C72.1923 16.1437 72.2464 16.0895 72.3167 16.0516C72.387 16.0137 72.467 15.9947 72.5568 15.9947Z" fill="white"/>
<path fill-rule="evenodd" clip-rule="evenodd" d="M57.8222 98.7138C60.4022 98.7138 63.3936 97.2441 63.3936 93.9373C63.3936 91.2992 60.4022 89.1609 57.8222 89.1609H55.6794C55.6794 89.1609 55.3794 90.5146 55.3794 91.447C55.3794 92.3795 55.5079 93.9373 55.5079 93.9373C55.5079 93.9373 55.5079 95.3931 55.5079 96.3256C55.5079 97.258 55.7223 98.5913 55.7223 98.5913L57.8222 98.7138ZM58.0365 96.3256L57.8222 91.6103C57.8222 91.6103 60.8651 91.6512 61.0794 93.9373C61.2966 96.2554 58.0365 96.3256 58.0365 96.3256Z" fill="white"/>
<path d="M72.33 89.4475C72.33 89.4475 65.5073 89.1707 65.3054 89.4475C64.9421 89.9447 65.5073 98.5228 65.5073 98.5228C65.5073 98.5228 72.2492 98.6216 72.33 98.446C72.6791 97.6883 72.5722 96.3403 72.5722 96.3403C72.5722 96.3403 67.8084 96.493 67.7276 96.3403C67.4739 95.8586 67.7276 94.9612 67.7276 94.9612L72.007 94.9228V92.9698C72.007 92.9698 67.8662 93.0776 67.8084 92.9698C67.7021 92.7722 67.6066 92.6563 67.6066 92.4342C67.6066 92.0896 67.4451 91.6683 67.6066 91.5148C67.7207 91.407 72.33 91.4381 72.33 91.4381V89.4475Z" fill="white"/>
</g>
<defs>
<clipPath id="clip0_608_326">
<rect width="117" height="101" fill="white" transform="translate(0.5)"/>
</clipPath>
</defs>
</svg>
