<svg width="117" height="99" viewBox="0 0 117 99" fill="none" xmlns="http://www.w3.org/2000/svg">
    <path d="M73.2438 2.61592C77.4544 4.11628 81.5361 5.40728 85.2677 7.3698C85.1643 8.81538 84.1153 8.78323 83.414 9.07319C78.9709 10.9103 74.4654 12.5995 70.0614 14.5253C66.8499 15.9297 63.7577 16.1247 60.5422 14.6602C59.2594 14.0758 57.8816 13.7033 56.5677 13.2417C55.246 16.2161 55.7248 17.2207 58.5348 17.9787C62.7192 19.1074 66.7229 18.2224 70.6904 16.9365C72.3654 16.3936 74.0115 15.7598 75.6943 15.1589C77.3015 16.8327 76.3266 18.6836 76.1923 20.3249C75.7192 26.1063 73.9937 31.4988 70.2083 35.9884C67.7889 38.858 64.7734 40.8003 60.8277 40.7713C59.8448 40.764 58.9581 40.5759 58.4755 39.6142C57.928 38.523 58.701 37.873 59.36 37.2131C60.6106 35.9609 61.9896 34.8183 62.9774 32.6403C52.8368 37.5085 43.8407 43.5507 34.323 48.7532C41.6268 39.4594 50.1323 31.4596 59.0462 23.225C57.6072 22.6786 56.4126 22.2216 55.2155 21.7712C53.0647 20.9619 52.1009 19.4609 52.0879 17.0926C52.058 11.6536 51.9892 11.6576 46.9962 9.68372C46.3708 9.43648 45.7559 9.15263 45.1649 8.83199C44.9655 8.72377 44.8549 8.44915 44.6899 8.23245C45.0221 6.80638 46.2959 6.56959 47.3428 6.15304C51.7315 4.40692 56.1796 2.80825 60.537 0.988213C63.3426 -0.183669 65.9879 -0.470808 68.7796 0.997091C70.1107 1.69694 71.6231 2.04645 73.2438 2.61592Z" fill="url(#paint0_linear_2569_17845)"/>
    <path d="M15.9057 57.7508C15.9899 58.2548 16.032 58.7168 16.032 59.1368C16.032 59.8508 15.9162 60.3758 15.6848 60.7118C15.4534 61.0478 15.0852 61.2158 14.5803 61.2158H10.3513V79.8007H5.55438V61.2158H0V57.7508H15.9057Z" fill="url(#paint1_linear_2569_17845)"/>
    <path d="M26.9886 62.2553C27.9985 62.2553 28.7349 62.4757 29.1977 62.9167C29.6606 63.3367 29.892 64.0192 29.892 64.9642C29.892 65.3212 29.8394 65.6782 29.7342 66.0352C29.6501 66.3712 29.5238 66.6337 29.3555 66.8227C29.1031 66.6757 28.819 66.5707 28.5034 66.5077C28.1878 66.4447 27.7355 66.4132 27.1464 66.4132C25.7788 66.4132 24.7584 66.8332 24.0852 67.6732C23.433 68.5132 23.1068 69.7942 23.1068 71.5162V79.8007H18.4361V62.4757H23.1068V64.7752C23.5276 63.9562 24.0747 63.3367 24.7479 62.9167C25.4212 62.4757 26.1681 62.2553 26.9886 62.2553Z" fill="url(#paint2_linear_2569_17845)"/>
    <path d="M46.2531 73.2802C46.2531 75.0022 46.3163 76.2412 46.4425 76.9972C46.5898 77.7532 46.8738 78.4042 47.2946 78.9502C46.8528 79.2652 46.2847 79.5277 45.5904 79.7377C44.8961 79.9267 44.2649 80.0212 43.6969 80.0212C43.1709 80.0212 42.7501 79.8322 42.4345 79.4542C42.1189 79.0762 41.8875 78.4777 41.7402 77.6587C41.1721 78.5407 40.4989 79.1707 39.7204 79.5487C38.942 79.9267 37.9321 80.1157 36.6908 80.1157C35.1549 80.1157 33.9136 79.7062 32.9668 78.8872C32.02 78.0472 31.5467 76.9552 31.5467 75.6112C31.5467 73.7212 32.3356 72.3142 33.9136 71.3902C35.5126 70.4452 38.0688 69.8782 41.5824 69.6892V68.0512C41.5824 67.1902 41.351 66.5497 40.8881 66.1297C40.4463 65.7097 39.7625 65.4997 38.8368 65.4997C38.1635 65.4997 37.4903 65.6362 36.817 65.9092C36.1648 66.1612 35.3548 66.6127 34.387 67.2637C34.2818 67.3477 34.1345 67.3897 33.9451 67.3897C33.5664 67.3897 33.1562 67.1377 32.7143 66.6337C32.2936 66.1297 31.9148 65.4682 31.5782 64.6492C32.3988 63.9352 33.5454 63.3472 35.0181 62.8853C36.5119 62.4023 37.9847 62.1608 39.4364 62.1608C41.6245 62.1608 43.3076 62.6753 44.4858 63.7042C45.664 64.7122 46.2531 66.1612 46.2531 68.0512V73.2802ZM38.3318 77.0917C38.963 77.0917 39.5416 76.8712 40.0676 76.4302C40.6146 75.9892 41.1195 75.3067 41.5824 74.3827V72.0517C39.8361 72.1147 38.5107 72.4087 37.606 72.9337C36.7223 73.4377 36.2805 74.1622 36.2805 75.1072C36.2805 75.7162 36.4699 76.1992 36.8486 76.5562C37.2273 76.9132 37.7217 77.0917 38.3318 77.0917Z" fill="url(#paint3_linear_2569_17845)"/>
    <path d="M50.4303 62.4757H55.101V79.8007H50.4303V62.4757ZM52.5447 59.2943C50.9037 59.2943 50.0831 58.4753 50.0831 56.8373V56.3648C50.0831 54.7268 50.9037 53.9078 52.5447 53.9078H52.9865C54.6276 53.9078 55.4481 54.7268 55.4481 56.3648V56.8373C55.4481 58.4753 54.6276 59.2943 52.9865 59.2943H52.5447Z" fill="url(#paint4_linear_2569_17845)"/>
    <path d="M74.3547 75.4537C74.3547 76.5037 74.3968 77.2912 74.4809 77.8162C74.5651 78.3412 74.7229 78.8242 74.9543 79.2652C73.713 79.7272 72.4296 79.9582 71.1041 79.9582C70.5781 79.9582 70.2099 79.7062 69.9995 79.2022C69.7892 78.6982 69.684 77.8267 69.684 76.5877V68.3662C69.684 67.2742 69.5156 66.5182 69.179 66.0982C68.8634 65.6572 68.2954 65.4367 67.4748 65.4367C66.3808 65.4367 65.1815 65.9722 63.8771 67.0432V79.8007H59.2064V68.1457C59.2064 66.7387 59.1748 65.6572 59.1117 64.9012C59.0696 64.1452 58.9749 63.5362 58.8277 63.0742C60.3846 62.5912 61.6575 62.3498 62.6463 62.3498C63.0881 62.3498 63.4037 62.4967 63.5931 62.7907C63.7824 63.0637 63.8771 63.5257 63.8771 64.1767V64.5547C64.9501 63.6517 65.8548 63.0322 66.5912 62.6962C67.3486 62.3392 68.1376 62.1608 68.9581 62.1608C70.7675 62.1608 72.114 62.6542 72.9977 63.6412C73.9023 64.6072 74.3547 66.0877 74.3547 68.0827V75.4537Z" fill="url(#paint5_linear_2569_17845)"/>
    <path d="M87.8099 80.1157C84.8854 80.1157 82.6763 79.4332 81.1825 78.0682C79.7098 76.6822 78.9734 74.6242 78.9734 71.8942V57.7508H83.8335V72.5872C83.8335 73.8892 84.1701 74.8972 84.8434 75.6112C85.5377 76.3042 86.5265 76.6507 87.8099 76.6507C90.4398 76.6507 91.7548 75.2962 91.7548 72.5872V57.7508H96.6149V71.8942C96.6149 74.6662 95.889 76.7347 94.4373 78.0997C92.9856 79.4437 90.7765 80.1157 87.8099 80.1157Z" fill="url(#paint6_linear_2569_17845)"/>
    <path d="M110.152 62.1608C112.403 62.1608 114.107 62.8958 115.264 64.3657C116.421 65.8147 117 67.9567 117 70.7917C117 72.6397 116.663 74.2672 115.99 75.6742C115.317 77.0812 114.37 78.1732 113.15 78.9502C111.93 79.7272 110.52 80.1157 108.921 80.1157C108.037 80.1157 106.954 79.9372 105.67 79.5802V86.9827H101V69.0907C101 67.3897 100.926 66.1612 100.779 65.4052C100.652 64.6282 100.379 63.9667 99.9581 63.4207C100.547 63.0847 101.168 62.8223 101.82 62.6333C102.493 62.4443 103.125 62.3498 103.714 62.3498C104.155 62.3498 104.513 62.4967 104.787 62.7907C105.06 63.0847 105.271 63.5362 105.418 64.1452C106.68 62.8223 108.258 62.1608 110.152 62.1608ZM108.258 77.0917C109.563 77.0917 110.551 76.5562 111.225 75.4852C111.919 74.4142 112.266 72.8497 112.266 70.7917C112.266 68.8387 112.014 67.4107 111.509 66.5077C111.004 65.5837 110.204 65.1217 109.11 65.1217C108.437 65.1217 107.785 65.2792 107.154 65.5942C106.522 65.9092 106.028 66.2977 105.67 66.7597V76.5247C106.533 76.9027 107.396 77.0917 108.258 77.0917Z" fill="url(#paint7_linear_2569_17845)"/>
    <path d="M11.3437 99C8.95293 99 7.45588 97.3546 7.45588 94.7139C7.45588 92.0674 8.95293 90.4162 11.3437 90.4162C13.729 90.4162 15.2316 92.0674 15.2316 94.7139C15.2316 97.3546 13.729 99 11.3437 99ZM11.3437 97.5502C12.662 97.5502 13.5055 96.4513 13.5055 94.7139C13.5055 92.9706 12.662 91.866 11.3437 91.866C10.0254 91.866 9.17637 92.9706 9.17637 94.7139C9.17637 96.4513 10.0199 97.5502 11.3437 97.5502Z" fill="white"/>
    <path d="M11.3437 99C8.95293 99 7.45588 97.3546 7.45588 94.7139C7.45588 92.0674 8.95293 90.4162 11.3437 90.4162C13.729 90.4162 15.2316 92.0674 15.2316 94.7139C15.2316 97.3546 13.729 99 11.3437 99ZM11.3437 97.5502C12.662 97.5502 13.5055 96.4513 13.5055 94.7139C13.5055 92.9706 12.662 91.866 11.3437 91.866C10.0254 91.866 9.17637 92.9706 9.17637 94.7139C9.17637 96.4513 10.0199 97.5502 11.3437 97.5502Z" fill="url(#paint8_linear_2569_17845)"/>
    <path d="M17.474 98.9712C16.9657 98.9712 16.6641 98.6548 16.6641 98.1025V91.3137C16.6641 90.7614 16.9769 90.445 17.5131 90.445C17.8595 90.445 18.0941 90.5888 18.351 90.9512L21.8367 95.968H21.8814V91.3194C21.8814 90.7614 22.183 90.445 22.6914 90.445C23.1997 90.445 23.4958 90.7614 23.4958 91.3194V98.1255C23.4958 98.6663 23.1997 98.9712 22.669 98.9712C22.3059 98.9712 22.0825 98.8389 21.8255 98.4707L18.3287 93.4251H18.2784V98.1025C18.2784 98.6548 17.9768 98.9712 17.474 98.9712Z" fill="white"/>
    <path d="M17.474 98.9712C16.9657 98.9712 16.6641 98.6548 16.6641 98.1025V91.3137C16.6641 90.7614 16.9769 90.445 17.5131 90.445C17.8595 90.445 18.0941 90.5888 18.351 90.9512L21.8367 95.968H21.8814V91.3194C21.8814 90.7614 22.183 90.445 22.6914 90.445C23.1997 90.445 23.4958 90.7614 23.4958 91.3194V98.1255C23.4958 98.6663 23.1997 98.9712 22.669 98.9712C22.3059 98.9712 22.0825 98.8389 21.8255 98.4707L18.3287 93.4251H18.2784V98.1025C18.2784 98.6548 17.9768 98.9712 17.474 98.9712Z" fill="url(#paint9_linear_2569_17845)"/>
    <path d="M26.0287 98.8619C25.498 98.8619 25.1852 98.5282 25.1852 97.9529V91.354C25.1852 90.7786 25.498 90.445 26.0287 90.445C26.5593 90.445 26.8722 90.7786 26.8722 91.354V97.4236H29.7322C30.1902 97.4236 30.4975 97.694 30.4975 98.1428C30.4975 98.5915 30.1958 98.8619 29.7322 98.8619H26.0287Z" fill="white"/>
    <path d="M26.0287 98.8619C25.498 98.8619 25.1852 98.5282 25.1852 97.9529V91.354C25.1852 90.7786 25.498 90.445 26.0287 90.445C26.5593 90.445 26.8722 90.7786 26.8722 91.354V97.4236H29.7322C30.1902 97.4236 30.4975 97.694 30.4975 98.1428C30.4975 98.5915 30.1958 98.8619 29.7322 98.8619H26.0287Z" fill="url(#paint10_linear_2569_17845)"/>
    <path d="M32.5835 98.9712C32.0528 98.9712 31.74 98.6376 31.74 98.068V91.354C31.74 90.7786 32.0528 90.445 32.5835 90.445C33.1142 90.445 33.427 90.7786 33.427 91.354V98.068C33.427 98.6376 33.1142 98.9712 32.5835 98.9712Z" fill="white"/>
    <path d="M32.5835 98.9712C32.0528 98.9712 31.74 98.6376 31.74 98.068V91.354C31.74 90.7786 32.0528 90.445 32.5835 90.445C33.1142 90.445 33.427 90.7786 33.427 91.354V98.068C33.427 98.6376 33.1142 98.9712 32.5835 98.9712Z" fill="url(#paint11_linear_2569_17845)"/>
    <path d="M35.9208 98.9712C35.4125 98.9712 35.1108 98.6548 35.1108 98.1025V91.3137C35.1108 90.7614 35.4237 90.445 35.9599 90.445C36.3063 90.445 36.5409 90.5888 36.7978 90.9512L40.2835 95.968H40.3282V91.3194C40.3282 90.7614 40.6298 90.445 41.1381 90.445C41.6465 90.445 41.9425 90.7614 41.9425 91.3194V98.1255C41.9425 98.6663 41.6465 98.9712 41.1158 98.9712C40.7527 98.9712 40.5293 98.8389 40.2723 98.4707L36.7755 93.4251H36.7252V98.1025C36.7252 98.6548 36.4236 98.9712 35.9208 98.9712Z" fill="white"/>
    <path d="M35.9208 98.9712C35.4125 98.9712 35.1108 98.6548 35.1108 98.1025V91.3137C35.1108 90.7614 35.4237 90.445 35.9599 90.445C36.3063 90.445 36.5409 90.5888 36.7978 90.9512L40.2835 95.968H40.3282V91.3194C40.3282 90.7614 40.6298 90.445 41.1381 90.445C41.6465 90.445 41.9425 90.7614 41.9425 91.3194V98.1255C41.9425 98.6663 41.6465 98.9712 41.1158 98.9712C40.7527 98.9712 40.5293 98.8389 40.2723 98.4707L36.7755 93.4251H36.7252V98.1025C36.7252 98.6548 36.4236 98.9712 35.9208 98.9712Z" fill="url(#paint12_linear_2569_17845)"/>
    <path d="M44.4754 98.8619C43.9448 98.8619 43.632 98.5282 43.632 97.9529V91.4633C43.632 90.8937 43.9448 90.56 44.4754 90.56H48.3074C48.7711 90.56 49.0727 90.8304 49.0727 91.2792C49.0727 91.7279 48.7655 91.9983 48.3074 91.9983H45.3189V93.9947H48.1622C48.5812 93.9947 48.866 94.2478 48.866 94.6621C48.866 95.0763 48.5867 95.3294 48.1622 95.3294H45.3189V97.4236H48.3074C48.7655 97.4236 49.0727 97.694 49.0727 98.1428C49.0727 98.5915 48.7711 98.8619 48.3074 98.8619H44.4754Z" fill="white"/>
    <path d="M44.4754 98.8619C43.9448 98.8619 43.632 98.5282 43.632 97.9529V91.4633C43.632 90.8937 43.9448 90.56 44.4754 90.56H48.3074C48.7711 90.56 49.0727 90.8304 49.0727 91.2792C49.0727 91.7279 48.7655 91.9983 48.3074 91.9983H45.3189V93.9947H48.1622C48.5812 93.9947 48.866 94.2478 48.866 94.6621C48.866 95.0763 48.5867 95.3294 48.1622 95.3294H45.3189V97.4236H48.3074C48.7655 97.4236 49.0727 97.694 49.0727 98.1428C49.0727 98.5915 48.7711 98.8619 48.3074 98.8619H44.4754Z" fill="url(#paint13_linear_2569_17845)"/>
    <path d="M53.6805 98.9712C53.1554 98.9712 52.8258 98.6548 52.8258 98.1543C52.8258 98.0104 52.8649 97.8148 52.9376 97.602L55.1385 91.4288C55.3731 90.7556 55.7697 90.445 56.4065 90.445C57.0656 90.445 57.4566 90.7441 57.6968 91.423L59.9089 97.602C59.9871 97.8263 60.015 97.9817 60.015 98.1543C60.015 98.6318 59.6631 98.9712 59.1715 98.9712C58.6967 98.9712 58.4454 98.7469 58.2945 98.2061L57.87 96.8943H54.9597L54.5352 98.1888C54.3788 98.7411 54.1274 98.9712 53.6805 98.9712ZM55.3284 95.5481H57.479L56.4121 92.1479H56.373L55.3284 95.5481Z" fill="white"/>
    <path d="M53.6805 98.9712C53.1554 98.9712 52.8258 98.6548 52.8258 98.1543C52.8258 98.0104 52.8649 97.8148 52.9376 97.602L55.1385 91.4288C55.3731 90.7556 55.7697 90.445 56.4065 90.445C57.0656 90.445 57.4566 90.7441 57.6968 91.423L59.9089 97.602C59.9871 97.8263 60.015 97.9817 60.015 98.1543C60.015 98.6318 59.6631 98.9712 59.1715 98.9712C58.6967 98.9712 58.4454 98.7469 58.2945 98.2061L57.87 96.8943H54.9597L54.5352 98.1888C54.3788 98.7411 54.1274 98.9712 53.6805 98.9712ZM55.3284 95.5481H57.479L56.4121 92.1479H56.373L55.3284 95.5481Z" fill="url(#paint14_linear_2569_17845)"/>
    <path d="M64.5868 99C62.196 99 60.7437 97.3891 60.7437 94.7081C60.7437 92.0328 62.224 90.4162 64.5422 90.4162C66.0504 90.4162 67.2179 91.1066 67.7709 92.3033C67.8826 92.5219 67.9384 92.7462 67.9384 92.9534C67.9384 93.4079 67.6424 93.7013 67.1955 93.7013C66.8157 93.7013 66.5755 93.5287 66.3911 93.126C66.0224 92.2802 65.3633 91.8545 64.5589 91.8545C63.2853 91.8545 62.4642 92.9534 62.4642 94.7023C62.4642 96.4743 63.2741 97.5674 64.5645 97.5674C65.4136 97.5674 66.0504 97.1705 66.4135 96.3363C66.5866 95.945 66.7989 95.7897 67.1564 95.7897C67.6312 95.7897 67.944 96.1004 67.944 96.5606C67.944 96.7562 67.8993 96.9404 67.8156 97.1417C67.3128 98.2924 66.1118 99 64.5868 99Z" fill="white"/>
    <path d="M64.5868 99C62.196 99 60.7437 97.3891 60.7437 94.7081C60.7437 92.0328 62.224 90.4162 64.5422 90.4162C66.0504 90.4162 67.2179 91.1066 67.7709 92.3033C67.8826 92.5219 67.9384 92.7462 67.9384 92.9534C67.9384 93.4079 67.6424 93.7013 67.1955 93.7013C66.8157 93.7013 66.5755 93.5287 66.3911 93.126C66.0224 92.2802 65.3633 91.8545 64.5589 91.8545C63.2853 91.8545 62.4642 92.9534 62.4642 94.7023C62.4642 96.4743 63.2741 97.5674 64.5645 97.5674C65.4136 97.5674 66.0504 97.1705 66.4135 96.3363C66.5866 95.945 66.7989 95.7897 67.1564 95.7897C67.6312 95.7897 67.944 96.1004 67.944 96.5606C67.944 96.7562 67.8993 96.9404 67.8156 97.1417C67.3128 98.2924 66.1118 99 64.5868 99Z" fill="url(#paint15_linear_2569_17845)"/>
    <path d="M69.7508 98.9712C69.2257 98.9712 68.8961 98.6548 68.8961 98.1543C68.8961 98.0104 68.9352 97.8148 69.0078 97.602L71.2087 91.4288C71.4433 90.7556 71.8399 90.445 72.4767 90.445C73.1359 90.445 73.5269 90.7441 73.7671 91.423L75.9792 97.602C76.0574 97.8263 76.0853 97.9817 76.0853 98.1543C76.0853 98.6318 75.7334 98.9712 75.2418 98.9712C74.767 98.9712 74.5156 98.7469 74.3648 98.2061L73.9403 96.8943H71.03L70.6054 98.1888C70.449 98.7411 70.1976 98.9712 69.7508 98.9712ZM71.3986 95.5481H73.5492L72.4823 92.1479H72.4432L71.3986 95.5481Z" fill="white"/>
    <path d="M69.7508 98.9712C69.2257 98.9712 68.8961 98.6548 68.8961 98.1543C68.8961 98.0104 68.9352 97.8148 69.0078 97.602L71.2087 91.4288C71.4433 90.7556 71.8399 90.445 72.4767 90.445C73.1359 90.445 73.5269 90.7441 73.7671 91.423L75.9792 97.602C76.0574 97.8263 76.0853 97.9817 76.0853 98.1543C76.0853 98.6318 75.7334 98.9712 75.2418 98.9712C74.767 98.9712 74.5156 98.7469 74.3648 98.2061L73.9403 96.8943H71.03L70.6054 98.1888C70.449 98.7411 70.1976 98.9712 69.7508 98.9712ZM71.3986 95.5481H73.5492L72.4823 92.1479H72.4432L71.3986 95.5481Z" fill="url(#paint16_linear_2569_17845)"/>
    <path d="M78.2998 98.8619C77.7691 98.8619 77.4563 98.5282 77.4563 97.9529V91.4633C77.4563 90.8937 77.7691 90.56 78.2998 90.56H80.5342C82.9529 90.56 84.3774 92.0444 84.3774 94.6793C84.3774 97.3143 82.9529 98.8619 80.5342 98.8619H78.2998ZM79.1433 97.4236H80.3331C81.8413 97.4236 82.6569 96.4801 82.6569 94.6851C82.6569 92.9476 81.819 91.9926 80.3331 91.9926H79.1433V97.4236Z" fill="white"/>
    <path d="M78.2998 98.8619C77.7691 98.8619 77.4563 98.5282 77.4563 97.9529V91.4633C77.4563 90.8937 77.7691 90.56 78.2998 90.56H80.5342C82.9529 90.56 84.3774 92.0444 84.3774 94.6793C84.3774 97.3143 82.9529 98.8619 80.5342 98.8619H78.2998ZM79.1433 97.4236H80.3331C81.8413 97.4236 82.6569 96.4801 82.6569 94.6851C82.6569 92.9476 81.819 91.9926 80.3331 91.9926H79.1433V97.4236Z" fill="url(#paint17_linear_2569_17845)"/>
    <path d="M86.6534 98.8619C86.1227 98.8619 85.8099 98.5282 85.8099 97.9529V91.4633C85.8099 90.8937 86.1227 90.56 86.6534 90.56H90.4853C90.949 90.56 91.2506 90.8304 91.2506 91.2792C91.2506 91.7279 90.9434 91.9983 90.4853 91.9983H87.4968V93.9947H90.3401C90.7591 93.9947 91.0439 94.2478 91.0439 94.6621C91.0439 95.0763 90.7646 95.3294 90.3401 95.3294H87.4968V97.4236H90.4853C90.9434 97.4236 91.2506 97.694 91.2506 98.1428C91.2506 98.5915 90.949 98.8619 90.4853 98.8619H86.6534Z" fill="white"/>
    <path d="M86.6534 98.8619C86.1227 98.8619 85.8099 98.5282 85.8099 97.9529V91.4633C85.8099 90.8937 86.1227 90.56 86.6534 90.56H90.4853C90.949 90.56 91.2506 90.8304 91.2506 91.2792C91.2506 91.7279 90.9434 91.9983 90.4853 91.9983H87.4968V93.9947H90.3401C90.7591 93.9947 91.0439 94.2478 91.0439 94.6621C91.0439 95.0763 90.7646 95.3294 90.3401 95.3294H87.4968V97.4236H90.4853C90.9434 97.4236 91.2506 97.694 91.2506 98.1428C91.2506 98.5915 90.949 98.8619 90.4853 98.8619H86.6534Z" fill="url(#paint18_linear_2569_17845)"/>
    <path d="M93.4651 98.9712C92.9903 98.9712 92.711 98.6721 92.711 98.16V91.5668C92.711 90.8649 93.1132 90.445 93.8003 90.445C94.3868 90.445 94.7108 90.6981 94.9566 91.3425L96.9564 96.4456H97.0011L98.9953 91.3425C99.2411 90.7038 99.5706 90.445 100.163 90.445C100.844 90.445 101.246 90.8592 101.246 91.5668V98.16C101.246 98.6721 100.967 98.9712 100.492 98.9712C100.018 98.9712 99.7438 98.6721 99.7438 98.16V93.2583H99.6991L97.7049 98.2809C97.5597 98.6491 97.3362 98.8102 96.9843 98.8102C96.6268 98.8102 96.3922 98.6433 96.2526 98.2866L94.2584 93.2583H94.2137V98.16C94.2137 98.6721 93.9399 98.9712 93.4651 98.9712Z" fill="white"/>
    <path d="M93.4651 98.9712C92.9903 98.9712 92.711 98.6721 92.711 98.16V91.5668C92.711 90.8649 93.1132 90.445 93.8003 90.445C94.3868 90.445 94.7108 90.6981 94.9566 91.3425L96.9564 96.4456H97.0011L98.9953 91.3425C99.2411 90.7038 99.5706 90.445 100.163 90.445C100.844 90.445 101.246 90.8592 101.246 91.5668V98.16C101.246 98.6721 100.967 98.9712 100.492 98.9712C100.018 98.9712 99.7438 98.6721 99.7438 98.16V93.2583H99.6991L97.7049 98.2809C97.5597 98.6491 97.3362 98.8102 96.9843 98.8102C96.6268 98.8102 96.3922 98.6433 96.2526 98.2866L94.2584 93.2583H94.2137V98.16C94.2137 98.6721 93.9399 98.9712 93.4651 98.9712Z" fill="url(#paint19_linear_2569_17845)"/>
    <path d="M106.064 98.9712C105.533 98.9712 105.221 98.6376 105.221 98.068V95.7609L102.763 91.8487C102.64 91.6531 102.59 91.4575 102.59 91.2619C102.59 90.7901 102.947 90.445 103.433 90.445C103.796 90.445 103.992 90.583 104.215 90.98L106.058 94.104H106.098L107.947 90.98C108.159 90.6003 108.377 90.445 108.712 90.445C109.187 90.445 109.544 90.7902 109.544 91.2504C109.544 91.4518 109.488 91.6416 109.365 91.843L106.908 95.7609V98.068C106.908 98.6376 106.595 98.9712 106.064 98.9712Z" fill="white"/>
    <path d="M106.064 98.9712C105.533 98.9712 105.221 98.6376 105.221 98.068V95.7609L102.763 91.8487C102.64 91.6531 102.59 91.4575 102.59 91.2619C102.59 90.7901 102.947 90.445 103.433 90.445C103.796 90.445 103.992 90.583 104.215 90.98L106.058 94.104H106.098L107.947 90.98C108.159 90.6003 108.377 90.445 108.712 90.445C109.187 90.445 109.544 90.7902 109.544 91.2504C109.544 91.4518 109.488 91.6416 109.365 91.843L106.908 95.7609V98.068C106.908 98.6376 106.595 98.9712 106.064 98.9712Z" fill="url(#paint20_linear_2569_17845)"/>
    <defs>
        <linearGradient id="paint0_linear_2569_17845" x1="-25" y1="-43.4635" x2="209.196" y2="-24.0114" gradientUnits="userSpaceOnUse">
            <stop stop-color="#4BBBE4"/>
            <stop offset="0.187657" stop-color="#45B0D8"/>
            <stop offset="0.394174" stop-color="#318AAF"/>
            <stop offset="0.600691" stop-color="#2B7EA2"/>
            <stop offset="0.840273" stop-color="#114D6D"/>
            <stop offset="1" stop-color="#002C4A"/>
        </linearGradient>
        <linearGradient id="paint1_linear_2569_17845" x1="-25" y1="-43.4635" x2="209.196" y2="-24.0114" gradientUnits="userSpaceOnUse">
            <stop stop-color="#4BBBE4"/>
            <stop offset="0.187657" stop-color="#45B0D8"/>
            <stop offset="0.394174" stop-color="#318AAF"/>
            <stop offset="0.600691" stop-color="#2B7EA2"/>
            <stop offset="0.840273" stop-color="#114D6D"/>
            <stop offset="1" stop-color="#002C4A"/>
        </linearGradient>
        <linearGradient id="paint2_linear_2569_17845" x1="-25" y1="-43.4635" x2="209.196" y2="-24.0114" gradientUnits="userSpaceOnUse">
            <stop stop-color="#4BBBE4"/>
            <stop offset="0.187657" stop-color="#45B0D8"/>
            <stop offset="0.394174" stop-color="#318AAF"/>
            <stop offset="0.600691" stop-color="#2B7EA2"/>
            <stop offset="0.840273" stop-color="#114D6D"/>
            <stop offset="1" stop-color="#002C4A"/>
        </linearGradient>
        <linearGradient id="paint3_linear_2569_17845" x1="-25" y1="-43.4635" x2="209.196" y2="-24.0114" gradientUnits="userSpaceOnUse">
            <stop stop-color="#4BBBE4"/>
            <stop offset="0.187657" stop-color="#45B0D8"/>
            <stop offset="0.394174" stop-color="#318AAF"/>
            <stop offset="0.600691" stop-color="#2B7EA2"/>
            <stop offset="0.840273" stop-color="#114D6D"/>
            <stop offset="1" stop-color="#002C4A"/>
        </linearGradient>
        <linearGradient id="paint4_linear_2569_17845" x1="-25" y1="-43.4635" x2="209.196" y2="-24.0114" gradientUnits="userSpaceOnUse">
            <stop stop-color="#4BBBE4"/>
            <stop offset="0.187657" stop-color="#45B0D8"/>
            <stop offset="0.394174" stop-color="#318AAF"/>
            <stop offset="0.600691" stop-color="#2B7EA2"/>
            <stop offset="0.840273" stop-color="#114D6D"/>
            <stop offset="1" stop-color="#002C4A"/>
        </linearGradient>
        <linearGradient id="paint5_linear_2569_17845" x1="-25" y1="-43.4635" x2="209.196" y2="-24.0114" gradientUnits="userSpaceOnUse">
            <stop stop-color="#4BBBE4"/>
            <stop offset="0.187657" stop-color="#45B0D8"/>
            <stop offset="0.394174" stop-color="#318AAF"/>
            <stop offset="0.600691" stop-color="#2B7EA2"/>
            <stop offset="0.840273" stop-color="#114D6D"/>
            <stop offset="1" stop-color="#002C4A"/>
        </linearGradient>
        <linearGradient id="paint6_linear_2569_17845" x1="-25" y1="-43.4635" x2="209.196" y2="-24.0114" gradientUnits="userSpaceOnUse">
            <stop stop-color="#4BBBE4"/>
            <stop offset="0.187657" stop-color="#45B0D8"/>
            <stop offset="0.394174" stop-color="#318AAF"/>
            <stop offset="0.600691" stop-color="#2B7EA2"/>
            <stop offset="0.840273" stop-color="#114D6D"/>
            <stop offset="1" stop-color="#002C4A"/>
        </linearGradient>
        <linearGradient id="paint7_linear_2569_17845" x1="-25" y1="-43.4635" x2="209.196" y2="-24.0114" gradientUnits="userSpaceOnUse">
            <stop stop-color="#4BBBE4"/>
            <stop offset="0.187657" stop-color="#45B0D8"/>
            <stop offset="0.394174" stop-color="#318AAF"/>
            <stop offset="0.600691" stop-color="#2B7EA2"/>
            <stop offset="0.840273" stop-color="#114D6D"/>
            <stop offset="1" stop-color="#002C4A"/>
        </linearGradient>
        <linearGradient id="paint8_linear_2569_17845" x1="-34.4336" y1="55.2663" x2="98.9272" y2="227.85" gradientUnits="userSpaceOnUse">
            <stop stop-color="#4BBBE4"/>
            <stop offset="0.32858" stop-color="#45B0D8"/>
            <stop offset="0.533723" stop-color="#318AAF"/>
            <stop offset="0.650495" stop-color="#2B7EA2"/>
            <stop offset="0.840273" stop-color="#114D6D"/>
            <stop offset="1" stop-color="#002C4A"/>
        </linearGradient>
        <linearGradient id="paint9_linear_2569_17845" x1="-34.4336" y1="55.2663" x2="98.9272" y2="227.85" gradientUnits="userSpaceOnUse">
            <stop stop-color="#4BBBE4"/>
            <stop offset="0.32858" stop-color="#45B0D8"/>
            <stop offset="0.533723" stop-color="#318AAF"/>
            <stop offset="0.650495" stop-color="#2B7EA2"/>
            <stop offset="0.840273" stop-color="#114D6D"/>
            <stop offset="1" stop-color="#002C4A"/>
        </linearGradient>
        <linearGradient id="paint10_linear_2569_17845" x1="-34.4336" y1="55.2663" x2="98.9272" y2="227.85" gradientUnits="userSpaceOnUse">
            <stop stop-color="#4BBBE4"/>
            <stop offset="0.32858" stop-color="#45B0D8"/>
            <stop offset="0.533723" stop-color="#318AAF"/>
            <stop offset="0.650495" stop-color="#2B7EA2"/>
            <stop offset="0.840273" stop-color="#114D6D"/>
            <stop offset="1" stop-color="#002C4A"/>
        </linearGradient>
        <linearGradient id="paint11_linear_2569_17845" x1="-34.4336" y1="55.2663" x2="98.9272" y2="227.85" gradientUnits="userSpaceOnUse">
            <stop stop-color="#4BBBE4"/>
            <stop offset="0.32858" stop-color="#45B0D8"/>
            <stop offset="0.533723" stop-color="#318AAF"/>
            <stop offset="0.650495" stop-color="#2B7EA2"/>
            <stop offset="0.840273" stop-color="#114D6D"/>
            <stop offset="1" stop-color="#002C4A"/>
        </linearGradient>
        <linearGradient id="paint12_linear_2569_17845" x1="-34.4336" y1="55.2663" x2="98.9272" y2="227.85" gradientUnits="userSpaceOnUse">
            <stop stop-color="#4BBBE4"/>
            <stop offset="0.32858" stop-color="#45B0D8"/>
            <stop offset="0.533723" stop-color="#318AAF"/>
            <stop offset="0.650495" stop-color="#2B7EA2"/>
            <stop offset="0.840273" stop-color="#114D6D"/>
            <stop offset="1" stop-color="#002C4A"/>
        </linearGradient>
        <linearGradient id="paint13_linear_2569_17845" x1="-34.4336" y1="55.2663" x2="98.9272" y2="227.85" gradientUnits="userSpaceOnUse">
            <stop stop-color="#4BBBE4"/>
            <stop offset="0.32858" stop-color="#45B0D8"/>
            <stop offset="0.533723" stop-color="#318AAF"/>
            <stop offset="0.650495" stop-color="#2B7EA2"/>
            <stop offset="0.840273" stop-color="#114D6D"/>
            <stop offset="1" stop-color="#002C4A"/>
        </linearGradient>
        <linearGradient id="paint14_linear_2569_17845" x1="-34.4336" y1="55.2663" x2="98.9272" y2="227.85" gradientUnits="userSpaceOnUse">
            <stop stop-color="#4BBBE4"/>
            <stop offset="0.32858" stop-color="#45B0D8"/>
            <stop offset="0.533723" stop-color="#318AAF"/>
            <stop offset="0.650495" stop-color="#2B7EA2"/>
            <stop offset="0.840273" stop-color="#114D6D"/>
            <stop offset="1" stop-color="#002C4A"/>
        </linearGradient>
        <linearGradient id="paint15_linear_2569_17845" x1="-34.4336" y1="55.2663" x2="98.9272" y2="227.85" gradientUnits="userSpaceOnUse">
            <stop stop-color="#4BBBE4"/>
            <stop offset="0.32858" stop-color="#45B0D8"/>
            <stop offset="0.533723" stop-color="#318AAF"/>
            <stop offset="0.650495" stop-color="#2B7EA2"/>
            <stop offset="0.840273" stop-color="#114D6D"/>
            <stop offset="1" stop-color="#002C4A"/>
        </linearGradient>
        <linearGradient id="paint16_linear_2569_17845" x1="-34.4336" y1="55.2663" x2="98.9272" y2="227.85" gradientUnits="userSpaceOnUse">
            <stop stop-color="#4BBBE4"/>
            <stop offset="0.32858" stop-color="#45B0D8"/>
            <stop offset="0.533723" stop-color="#318AAF"/>
            <stop offset="0.650495" stop-color="#2B7EA2"/>
            <stop offset="0.840273" stop-color="#114D6D"/>
            <stop offset="1" stop-color="#002C4A"/>
        </linearGradient>
        <linearGradient id="paint17_linear_2569_17845" x1="-34.4336" y1="55.2663" x2="98.9272" y2="227.85" gradientUnits="userSpaceOnUse">
            <stop stop-color="#4BBBE4"/>
            <stop offset="0.32858" stop-color="#45B0D8"/>
            <stop offset="0.533723" stop-color="#318AAF"/>
            <stop offset="0.650495" stop-color="#2B7EA2"/>
            <stop offset="0.840273" stop-color="#114D6D"/>
            <stop offset="1" stop-color="#002C4A"/>
        </linearGradient>
        <linearGradient id="paint18_linear_2569_17845" x1="-34.4336" y1="55.2663" x2="98.9272" y2="227.85" gradientUnits="userSpaceOnUse">
            <stop stop-color="#4BBBE4"/>
            <stop offset="0.32858" stop-color="#45B0D8"/>
            <stop offset="0.533723" stop-color="#318AAF"/>
            <stop offset="0.650495" stop-color="#2B7EA2"/>
            <stop offset="0.840273" stop-color="#114D6D"/>
            <stop offset="1" stop-color="#002C4A"/>
        </linearGradient>
        <linearGradient id="paint19_linear_2569_17845" x1="-34.4336" y1="55.2663" x2="98.9272" y2="227.85" gradientUnits="userSpaceOnUse">
            <stop stop-color="#4BBBE4"/>
            <stop offset="0.32858" stop-color="#45B0D8"/>
            <stop offset="0.533723" stop-color="#318AAF"/>
            <stop offset="0.650495" stop-color="#2B7EA2"/>
            <stop offset="0.840273" stop-color="#114D6D"/>
            <stop offset="1" stop-color="#002C4A"/>
        </linearGradient>
        <linearGradient id="paint20_linear_2569_17845" x1="-34.4336" y1="55.2663" x2="98.9272" y2="227.85" gradientUnits="userSpaceOnUse">
            <stop stop-color="#4BBBE4"/>
            <stop offset="0.32858" stop-color="#45B0D8"/>
            <stop offset="0.533723" stop-color="#318AAF"/>
            <stop offset="0.650495" stop-color="#2B7EA2"/>
            <stop offset="0.840273" stop-color="#114D6D"/>
            <stop offset="1" stop-color="#002C4A"/>
        </linearGradient>
    </defs>
</svg>
