<svg width="24" height="24" viewBox="0 0 24 24" fill="none" xmlns="http://www.w3.org/2000/svg">
<g clip-path="url(#clip0_156_163)">
<path d="M17.5 11.039C13.916 11.039 11 13.955 11 17.539C11 21.102 13.916 24 17.5 24C21.084 24 24 21.084 24 17.5C24 13.937 21.084 11.039 17.5 11.039ZM17.5 23C14.468 23 12 20.55 12 17.539C12 14.506 14.468 12.039 17.5 12.039C20.532 12.039 23 14.489 23 17.5C23 20.533 20.532 23 17.5 23ZM18.854 18.146C19.049 18.341 19.049 18.658 18.854 18.853C18.756 18.951 18.628 18.999 18.5 18.999C18.372 18.999 18.244 18.95 18.146 18.853L17.146 17.853C17.052 17.759 17 17.632 17 17.499V15.499C17 15.223 17.224 14.999 17.5 14.999C17.776 14.999 18 15.223 18 15.499V17.292L18.854 18.146ZM19.5 2H18V0.5C18 0.224 17.776 0 17.5 0C17.224 0 17 0.224 17 0.5V2H7V0.5C7 0.224 6.776 0 6.5 0C6.224 0 6 0.224 6 0.5V2H4.5C2.019 2 0 4.019 0 6.5V19.5C0 21.981 2.019 24 4.5 24H10.5C10.776 24 11 23.776 11 23.5C11 23.224 10.776 23 10.5 23H4.5C2.57 23 1 21.43 1 19.5V9H23V10.5C23 10.776 23.224 11 23.5 11C23.776 11 24 10.776 24 10.5V6.5C24 4.019 21.981 2 19.5 2ZM1 8V6.5C1 4.57 2.57 3 4.5 3H19.5C21.43 3 23 4.57 23 6.5V8H1Z" fill="#4BBBE4"/>
</g>
<defs>
<clipPath id="clip0_156_163">
<rect width="24" height="24" fill="white"/>
</clipPath>
</defs>
</svg>
