<svg width="26" height="26" viewBox="0 0 26 26" fill="none" xmlns="http://www.w3.org/2000/svg">
<g clip-path="url(#clip0_144_184)">
<path d="M0.000213542 3.24989C0.000213542 2.65189 0.485547 2.16656 1.08355 2.16656H1.46055C2.46371 2.16656 3.46905 1.92931 4.36713 1.48081L6.1893 0.569727C6.93571 0.19706 7.76988 0.000976562 8.60188 0.000976562C9.98963 0.000976562 11.2799 0.500393 12.2744 1.40714L13.0327 2.09831L13.7022 1.46781C15.311 -0.0477735 17.8286 -0.42044 19.8111 0.569727L21.6333 1.48081C22.5314 1.93039 23.5367 2.16656 24.5399 2.16656H24.9169C25.5149 2.16656 26.0002 2.65189 26.0002 3.24989C26.0002 3.84789 25.5149 4.33323 24.9169 4.33323H24.5399C23.202 4.33323 21.8619 4.01689 20.6637 3.41889L18.8415 2.50781C17.6564 1.91631 16.1484 2.13839 15.1864 3.04406L10.0893 7.84214C9.70146 8.23106 9.61046 8.87564 9.9073 9.28839C10.1012 9.55814 10.3861 9.72064 10.7079 9.74664C11.0242 9.77697 11.3373 9.65889 11.5615 9.43248L16.0834 5.10456C16.5156 4.69181 17.2014 4.70589 17.6152 5.13814C18.029 5.57039 18.0139 6.25614 17.5816 6.66998L15.6674 8.50189L16.898 9.42489C17.3769 9.78347 17.4733 10.4627 17.1147 10.9416C16.9024 11.2254 16.5763 11.3749 16.247 11.3749C16.0216 11.3749 15.793 11.3045 15.598 11.1582L14.0814 10.0207L13.0771 10.9816C12.4802 11.5786 11.6558 11.9166 10.7978 11.9166C10.71 11.9166 10.6223 11.9133 10.5335 11.9057C9.5823 11.8288 8.71238 11.3359 8.14905 10.5526C7.23363 9.28081 7.41888 7.44673 8.58021 6.28539L11.4478 3.58573L10.813 3.00723C9.81846 2.10156 8.26821 1.94881 7.15563 2.50673L5.33455 3.41781C4.13746 4.01581 2.79738 4.33214 1.45838 4.33214H1.08138C0.48338 4.33214 -0.00195312 3.84681 -0.00195312 3.24881L0.000213542 3.24989ZM26.0002 19.4999C26.0002 23.0846 23.085 25.9999 19.5002 25.9999C15.9155 25.9999 13.0002 23.0846 13.0002 19.4999C13.0002 15.9151 15.9155 12.9999 19.5002 12.9999C23.085 12.9999 26.0002 15.9151 26.0002 19.4999ZM23.8335 19.4999C23.8335 17.1101 21.89 15.1666 19.5002 15.1666C17.1104 15.1666 15.1669 17.1101 15.1669 19.4999C15.1669 21.8897 17.1104 23.8332 19.5002 23.8332C21.89 23.8332 23.8335 21.8897 23.8335 19.4999ZM5.63355 15.5999C4.32921 14.6216 2.71396 14.0832 1.08355 14.0832C0.485547 14.0832 0.000213542 14.5675 0.000213542 15.1666C0.000213542 15.7656 0.485547 16.2499 1.08355 16.2499C2.24813 16.2499 3.40296 16.6345 4.33355 17.3332L9.10021 20.9082C9.29521 21.0545 9.5238 21.1249 9.74913 21.1249C10.0785 21.1249 10.4035 20.9754 10.6169 20.6916C10.9765 20.2138 10.879 19.5346 10.4002 19.176L5.63355 15.601V15.5999ZM20.9161 17.6344L19.003 19.4706C18.965 19.5086 18.9055 19.5086 18.8675 19.4706L17.8947 18.5184C17.4668 18.1002 16.7832 18.1067 16.3618 18.5357C15.9436 18.9636 15.9512 19.6483 16.378 20.0676L17.3509 21.0198C17.7896 21.4488 18.3649 21.6633 18.939 21.6633C19.5132 21.6633 20.083 21.4499 20.5142 21.0241L22.4165 19.1976C22.8477 18.7827 22.8629 18.097 22.448 17.6658C22.0341 17.2325 21.3484 17.2206 20.9161 17.6344Z" fill="#F5F5F5"/>
</g>
<defs>
<clipPath id="clip0_144_184">
<rect width="26" height="26" fill="white"/>
</clipPath>
</defs>
</svg>
