<svg width="30" height="30" viewBox="0 0 30 30" fill="none" xmlns="http://www.w3.org/2000/svg">
<g clip-path="url(#clip0_144_179)">
<path d="M29.2039 8.59856C29.0551 8.65731 28.9014 8.68356 28.7501 8.68356C28.2501 8.68356 27.7776 8.38231 27.5851 7.88731L26.1926 4.31856C21.6214 14.0086 13.3501 20.5261 1.57511 23.7073C1.46636 23.7361 1.35636 23.7498 1.24886 23.7498C0.697612 23.7498 0.192612 23.3836 0.042612 22.8261C-0.137388 22.1598 0.256362 21.4736 0.923862 21.2923C11.9976 18.3011 19.7451 12.1936 23.9864 3.12731L20.1464 4.62481C19.5001 4.87731 18.7776 4.55606 18.5276 3.91481C18.2764 3.27106 18.5951 2.54731 19.2376 2.29606L24.7389 0.149813C25.9351 -0.320187 27.2989 0.277313 27.7689 1.47731L29.9151 6.97856C30.1664 7.62231 29.8476 8.34606 29.2051 8.59731L29.2039 8.59856ZM27.5001 9.99981C26.8101 9.99981 26.2501 10.5586 26.2501 11.2498V28.7498C26.2501 29.4411 26.8101 29.9998 27.5001 29.9998C28.1901 29.9998 28.7501 29.4411 28.7501 28.7498V11.2498C28.7501 10.5586 28.1901 9.99981 27.5001 9.99981ZM21.2501 16.2498C20.5601 16.2498 20.0001 16.8086 20.0001 17.4998V28.7498C20.0001 29.4411 20.5601 29.9998 21.2501 29.9998C21.9401 29.9998 22.5001 29.4411 22.5001 28.7498V17.4998C22.5001 16.8086 21.9401 16.2498 21.2501 16.2498ZM15.0001 21.2498C14.3101 21.2498 13.7501 21.8086 13.7501 22.4998V28.7498C13.7501 29.4411 14.3101 29.9998 15.0001 29.9998C15.6901 29.9998 16.2501 29.4411 16.2501 28.7498V22.4998C16.2501 21.8086 15.6901 21.2498 15.0001 21.2498ZM8.75011 23.7498C8.06011 23.7498 7.50011 24.3086 7.50011 24.9998V28.7498C7.50011 29.4411 8.06011 29.9998 8.75011 29.9998C9.44011 29.9998 10.0001 29.4411 10.0001 28.7498V24.9998C10.0001 24.3086 9.44011 23.7498 8.75011 23.7498ZM2.50011 26.2498C1.81011 26.2498 1.25011 26.8086 1.25011 27.4998V28.7498C1.25011 29.4411 1.81011 29.9998 2.50011 29.9998C3.19011 29.9998 3.75011 29.4411 3.75011 28.7498V27.4998C3.75011 26.8086 3.19011 26.2498 2.50011 26.2498ZM0.000111993 7.49981C0.000111993 3.36356 3.36386 -0.000186961 7.50011 -0.000186961C11.6364 -0.000186961 15.0001 3.36356 15.0001 7.49981C15.0001 11.6361 11.6364 14.9998 7.50011 14.9998C3.36386 14.9998 0.000111993 11.6361 0.000111993 7.49981ZM5.00011 4.99981C5.00011 6.38106 6.11886 7.49981 7.50011 7.49981C8.88136 7.49981 10.0001 6.38106 10.0001 4.99981C10.0001 3.61856 8.88136 2.49981 7.50011 2.49981C6.11886 2.49981 5.00011 3.61856 5.00011 4.99981ZM3.79261 10.8248C4.70886 11.8448 6.02261 12.4998 7.50011 12.4998C8.97761 12.4998 10.2914 11.8448 11.2076 10.8248C10.4351 9.58356 9.07011 8.74981 7.50011 8.74981C5.93011 8.74981 4.56511 9.58356 3.79261 10.8248Z" fill="#F5F5F5"/>
</g>
<defs>
<clipPath id="clip0_144_179">
<rect width="30" height="30" fill="white"/>
</clipPath>
</defs>
</svg>
