<svg width="28" height="28" viewBox="0 0 28 28" fill="none" xmlns="http://www.w3.org/2000/svg">
<path d="M26.9489 16.3571L24.4435 18.77V20.6962C24.4435 22.5465 22.8816 24.0521 20.9622 24.0521H18.9651L16.4609 26.465C15.8053 27.0982 14.9303 27.4483 13.9997 27.4483C13.069 27.4483 12.1952 27.0993 11.5384 26.465L9.03532 24.0521H7.03705C5.1177 24.0521 3.55576 22.5465 3.55576 20.6962V18.77L1.0527 16.3571C-0.305003 15.0494 -0.305003 12.9195 1.0527 11.6107L3.55576 9.19781V7.27265C3.55576 5.42243 5.1177 3.91675 7.03705 3.91675H9.03532L11.5384 1.50274C12.8543 0.233088 15.1485 0.236444 16.4621 1.50274L18.9651 3.91563H20.9622C21.604 3.91563 22.1227 4.41678 22.1227 5.03426C22.1227 5.65175 21.604 6.15289 20.9622 6.15289H18.4847C18.176 6.15289 17.8813 6.03544 17.6643 5.82513L14.8201 3.08336C14.3826 2.66276 13.6202 2.66052 13.1792 3.08336L10.3362 5.82513C10.118 6.03544 9.82441 6.15289 9.51574 6.15289H7.03705C6.3965 6.15289 5.87662 6.65516 5.87662 7.27153V9.65981C5.87662 9.95625 5.75478 10.2415 5.53662 10.4507L2.69356 13.1913C2.24099 13.6276 2.24099 14.3368 2.69356 14.7742L5.53662 17.5148C5.75478 17.7252 5.87662 18.0082 5.87662 18.3057V20.6951C5.87662 21.3126 6.3965 21.8138 7.03705 21.8138H9.51574C9.82441 21.8138 10.1192 21.9312 10.3362 22.1415L13.1792 24.8822C13.619 25.305 14.3826 25.305 14.8189 24.8822L17.6643 22.1415C17.8825 21.9312 18.176 21.8138 18.4847 21.8138H20.9622C21.6028 21.8138 22.1227 21.3126 22.1227 20.6951V18.3057C22.1227 18.0082 22.2445 17.724 22.4627 17.5148L25.3069 14.7742C25.7595 14.3379 25.7595 13.6276 25.3069 13.1913C24.8543 12.7539 24.8543 12.0459 25.3069 11.6096C25.7606 11.1733 26.4952 11.1722 26.9489 11.6096C28.3043 12.9173 28.3043 15.046 26.9489 16.3548V16.3571ZM12.4737 15.8839L8.9715 12.5414C8.51429 12.1051 7.78205 12.1107 7.32948 12.5492C6.87808 12.9877 6.88272 13.6958 7.33761 14.131L10.841 17.4746C11.5535 18.1547 12.4911 18.4959 13.4276 18.4959C14.364 18.4959 15.304 18.1525 16.0176 17.469L26.3803 7.54559C26.8352 7.11044 26.8375 6.40235 26.385 5.96385C25.9324 5.52534 25.199 5.52199 24.7441 5.95825L14.3814 15.8828C13.8558 16.3873 13.0005 16.3873 12.4737 15.8839Z" fill="#F5F5F5"/>
</svg>
