<svg width="18" height="18" viewBox="0 0 18 18" fill="none" xmlns="http://www.w3.org/2000/svg">
<g clip-path="url(#clip0_141_129)">
<path d="M16.7392 3.32326L6.37497 13.6868C6.30529 13.7567 6.22248 13.8122 6.13129 13.8501C6.0401 13.888 5.94233 13.9075 5.84359 13.9075C5.74485 13.9075 5.64708 13.888 5.5559 13.8501C5.46471 13.8122 5.3819 13.7567 5.31222 13.6868L1.30422 9.67501C1.23454 9.60505 1.15173 9.54954 1.06054 9.51166C0.969353 9.47379 0.871584 9.45429 0.772844 9.45429C0.674104 9.45429 0.576335 9.47379 0.485148 9.51166C0.393961 9.54954 0.311151 9.60505 0.241469 9.67501C0.171511 9.74469 0.116002 9.8275 0.0781257 9.91869C0.0402494 10.0099 0.020752 10.1076 0.020752 10.2064C0.020752 10.3051 0.0402494 10.4029 0.0781257 10.4941C0.116002 10.5853 0.171511 10.6681 0.241469 10.7378L4.25097 14.7465C4.67393 15.1687 5.24712 15.4058 5.84472 15.4058C6.44232 15.4058 7.01551 15.1687 7.43847 14.7465L17.802 4.38526C17.8718 4.31559 17.9272 4.23282 17.965 4.14171C18.0028 4.05059 18.0223 3.95291 18.0223 3.85426C18.0223 3.75561 18.0028 3.65792 17.965 3.56681C17.9272 3.47569 17.8718 3.39292 17.802 3.32326C17.7323 3.2533 17.6495 3.19779 17.5583 3.15991C17.4671 3.12204 17.3693 3.10254 17.2706 3.10254C17.1719 3.10254 17.0741 3.12204 16.9829 3.15991C16.8917 3.19779 16.8089 3.2533 16.7392 3.32326Z" fill="#66707E"/>
</g>
<defs>
<clipPath id="clip0_141_129">
<rect width="18" height="18" fill="white"/>
</clipPath>
</defs>
</svg>
