<svg width="32" height="31" viewBox="0 0 32 31" fill="none" xmlns="http://www.w3.org/2000/svg">
<path d="M14.1708 1V0.5H13.6708L1 0.5H0.5V1L0.5 14.6828V15.1828H1L6.73737 15.1828C6.69177 17.4869 6.32657 19.1488 5.69494 20.2258C4.94431 21.4598 3.91388 22.321 2.59234 22.824L2.10711 23.0086L2.30991 23.4866L4.73227 29.1953L4.92175 29.6419L5.37383 29.466C7.96627 28.4574 10.095 26.6624 11.7605 24.108L11.7623 24.1053C13.3812 21.5859 14.1708 18.3728 14.1708 14.5016L14.1708 1ZM31.5 1V0.5H31L18.3292 0.5H17.8292V1L17.8292 14.6828V15.1828H18.3292L24.0666 15.1828C24.021 17.4868 23.6558 19.1487 23.0242 20.2258C22.2735 21.4598 21.2431 22.321 19.9215 22.824L19.4363 23.0086L19.6391 23.4866L22.0615 29.1953L22.2509 29.6419L22.703 29.466C25.2955 28.4574 27.4242 26.6624 29.0896 24.108L29.0897 24.108L29.0914 24.1053C30.7104 21.5859 31.5 18.3728 31.5 14.5016L31.5 1Z" stroke="#001028"/>
</svg>
