<svg width="24" height="24" viewBox="0 0 24 24" fill="none" xmlns="http://www.w3.org/2000/svg">
<g clip-path="url(#clip0_2876_15809)">
<path d="M23.2711 9.41903C21.7201 6.89303 18.1921 2.65503 12.0001 2.65503C5.80805 2.65503 2.28005 6.89303 0.729051 9.41903C0.249579 10.1945 -0.00439453 11.0883 -0.00439453 12C-0.00439453 12.9118 0.249579 13.8055 0.729051 14.581C2.28005 17.107 5.80805 21.345 12.0001 21.345C18.1921 21.345 21.7201 17.107 23.2711 14.581C23.7505 13.8055 24.0045 12.9118 24.0045 12C24.0045 11.0883 23.7505 10.1945 23.2711 9.41903ZM21.5661 13.534C20.2341 15.7 17.2191 19.345 12.0001 19.345C6.78105 19.345 3.76605 15.7 2.43405 13.534C2.14919 13.0731 1.9983 12.5419 1.9983 12C1.9983 11.4582 2.14919 10.927 2.43405 10.466C3.76605 8.30003 6.78105 4.65503 12.0001 4.65503C17.2191 4.65503 20.2341 8.29603 21.5661 10.466C21.8509 10.927 22.0018 11.4582 22.0018 12C22.0018 12.5419 21.8509 13.0731 21.5661 13.534Z" fill="#F5F5F5"/>
<path d="M12.0015 7C11.0126 7 10.0459 7.29324 9.22362 7.84265C8.40137 8.39206 7.76051 9.17295 7.38207 10.0866C7.00363 11.0002 6.90461 12.0055 7.09754 12.9755C7.29047 13.9454 7.76667 14.8363 8.46593 15.5355C9.1652 16.2348 10.0561 16.711 11.026 16.9039C11.9959 17.0969 13.0013 16.9978 13.9149 16.6194C14.8285 16.241 15.6094 15.6001 16.1588 14.7779C16.7082 13.9556 17.0015 12.9889 17.0015 12C16.9999 10.6744 16.4726 9.40356 15.5352 8.46622C14.5979 7.52888 13.3271 7.00159 12.0015 7ZM12.0015 15C11.4081 15 10.8281 14.8241 10.3348 14.4944C9.84141 14.1648 9.45689 13.6962 9.22983 13.1481C9.00277 12.5999 8.94336 11.9967 9.05911 11.4147C9.17487 10.8328 9.46059 10.2982 9.88015 9.87868C10.2997 9.45912 10.8343 9.1734 11.4162 9.05764C11.9981 8.94189 12.6013 9.0013 13.1495 9.22836C13.6977 9.45542 14.1662 9.83994 14.4959 10.3333C14.8255 10.8266 15.0015 11.4067 15.0015 12C15.0015 12.7957 14.6854 13.5587 14.1228 14.1213C13.5602 14.6839 12.7971 15 12.0015 15Z" fill="#F5F5F5"/>
</g>
<defs>
<clipPath id="clip0_2876_15809">
<rect width="24" height="24" fill="white"/>
</clipPath>
</defs>
</svg>
