<svg width="24" height="24" viewBox="0 0 24 24" fill="none" xmlns="http://www.w3.org/2000/svg">
<g clip-path="url(#clip0_2876_15813)">
<path d="M23.2711 9.41897C22.3683 7.9407 21.2296 6.62023 19.9001 5.50997L22.7001 2.70997C22.8822 2.52137 22.983 2.26877 22.9807 2.00657C22.9784 1.74437 22.8733 1.49356 22.6879 1.30815C22.5025 1.12274 22.2516 1.01758 21.9895 1.0153C21.7273 1.01302 21.4747 1.11381 21.2861 1.29597L18.2411 4.34497C16.3534 3.22379 14.1955 2.63943 12.0001 2.65497C5.80905 2.65497 2.28105 6.89297 0.729051 9.41897C0.249579 10.1945 -0.00439453 11.0882 -0.00439453 12C-0.00439453 12.9117 0.249579 13.8055 0.729051 14.581C1.63181 16.0592 2.77054 17.3797 4.10005 18.49L1.30005 21.29C1.20454 21.3822 1.12836 21.4926 1.07595 21.6146C1.02354 21.7366 0.995955 21.8678 0.994801 22.0006C0.993647 22.1334 1.01895 22.265 1.06923 22.3879C1.11951 22.5108 1.19376 22.6225 1.28766 22.7164C1.38155 22.8103 1.4932 22.8845 1.6161 22.9348C1.73899 22.9851 1.87067 23.0104 2.00345 23.0092C2.13623 23.0081 2.26745 22.9805 2.38946 22.9281C2.51146 22.8757 2.6218 22.7995 2.71405 22.704L5.76605 19.652C7.65132 20.773 9.80672 21.3583 12.0001 21.345C18.1911 21.345 21.7191 17.107 23.2711 14.581C23.7505 13.8055 24.0045 12.9117 24.0045 12C24.0045 11.0882 23.7505 10.1945 23.2711 9.41897ZM2.43305 13.534C2.14819 13.073 1.9973 12.5418 1.9973 12C1.9973 11.4581 2.14819 10.9269 2.43305 10.466C3.76705 8.29997 6.78205 4.65497 12.0001 4.65497C13.6603 4.64567 15.2973 5.04581 16.7661 5.81997L14.7531 7.83297C13.793 7.19557 12.642 6.90997 11.4953 7.02462C10.3486 7.13927 9.27692 7.64711 8.46205 8.46197C7.64719 9.27684 7.13935 10.3485 7.0247 11.4952C6.91005 12.6419 7.19565 13.7929 7.83305 14.753L5.52305 17.063C4.29815 16.0727 3.25289 14.8789 2.43305 13.534ZM15.0001 12C15.0001 12.7956 14.684 13.5587 14.1214 14.1213C13.5588 14.6839 12.7957 15 12.0001 15C11.5546 14.9982 11.1152 14.8957 10.7151 14.7L14.7001 10.715C14.8958 11.1152 14.9983 11.5545 15.0001 12ZM9.00005 12C9.00005 11.2043 9.31612 10.4413 9.87873 9.87865C10.4413 9.31604 11.2044 8.99997 12.0001 8.99997C12.4455 9.0017 12.8849 9.10426 13.2851 9.29997L9.30005 13.285C9.10434 12.8848 9.00178 12.4455 9.00005 12ZM21.5671 13.534C20.2331 15.7 17.2181 19.345 12.0001 19.345C10.3398 19.3543 8.70282 18.9541 7.23405 18.18L9.24705 16.167C10.2071 16.8044 11.3581 17.09 12.5048 16.9753C13.6515 16.8607 14.7232 16.3528 15.538 15.538C16.3529 14.7231 16.8608 13.6514 16.9754 12.5047C17.0901 11.3581 16.8044 10.207 16.1671 9.24697L18.4771 6.93697C19.7019 7.92725 20.7472 9.12102 21.5671 10.466C21.8519 10.9269 22.0028 11.4581 22.0028 12C22.0028 12.5418 21.8519 13.073 21.5671 13.534Z" fill="#1A283E"/>
</g>
<defs>
<clipPath id="clip0_2876_15813">
<rect width="24" height="24" fill="white"/>
</clipPath>
</defs>
</svg>
