<svg width="24" height="22" viewBox="0 0 24 22" fill="none" xmlns="http://www.w3.org/2000/svg">
<path d="M23.2711 8.40371C22.3683 6.92544 21.2296 5.60497 19.9001 4.49471L22.7001 1.69471C22.8822 1.50611 22.983 1.25351 22.9807 0.991311C22.9784 0.729114 22.8733 0.478301 22.6879 0.292893C22.5025 0.107485 22.2516 0.00231622 21.9895 3.78026e-05C21.7273 -0.00224062 21.4747 0.0985538 21.2861 0.280712L18.2411 3.32971C16.3534 2.20853 14.1955 1.62418 12.0001 1.63971C5.80905 1.63971 2.28105 5.87771 0.729051 8.40371C0.249579 9.17922 -0.00439453 10.073 -0.00439453 10.9847C-0.00439453 11.8965 0.249579 12.7902 0.729051 13.5657C1.63181 15.044 2.77054 16.3645 4.10005 17.4747L1.30005 20.2747C1.20454 20.367 1.12836 20.4773 1.07595 20.5993C1.02354 20.7213 0.995955 20.8525 0.994801 20.9853C0.993647 21.1181 1.01895 21.2498 1.06923 21.3727C1.11951 21.4956 1.19376 21.6072 1.28766 21.7011C1.38155 21.795 1.4932 21.8693 1.6161 21.9195C1.73899 21.9698 1.87067 21.9951 2.00345 21.994C2.13623 21.9928 2.26745 21.9652 2.38946 21.9128C2.51146 21.8604 2.6218 21.7842 2.71405 21.6887L5.76605 18.6367C7.65132 19.7577 9.80672 20.3431 12.0001 20.3297C18.1911 20.3297 21.7191 16.0917 23.2711 13.5657C23.7505 12.7902 24.0045 11.8965 24.0045 10.9847C24.0045 10.073 23.7505 9.17922 23.2711 8.40371ZM2.43305 12.5187C2.14819 12.0578 1.9973 11.5266 1.9973 10.9847C1.9973 10.4428 2.14819 9.91167 2.43305 9.45071C3.76705 7.28471 6.78205 3.63971 12.0001 3.63971C13.6603 3.63041 15.2973 4.03055 16.7661 4.80471L14.7531 6.81771C13.793 6.18031 12.642 5.89471 11.4953 6.00936C10.3486 6.12401 9.27692 6.63185 8.46205 7.44671C7.64719 8.26158 7.13935 9.33327 7.0247 10.4799C6.91005 11.6266 7.19565 12.7776 7.83305 13.7377L5.52305 16.0477C4.29815 15.0574 3.25289 13.8637 2.43305 12.5187ZM15.0001 10.9847C15.0001 11.7804 14.684 12.5434 14.1214 13.106C13.5588 13.6686 12.7957 13.9847 12.0001 13.9847C11.5546 13.983 11.1152 13.8804 10.7151 13.6847L14.7001 9.69971C14.8958 10.0999 14.9983 10.5392 15.0001 10.9847ZM9.00005 10.9847C9.00005 10.1891 9.31612 9.426 9.87873 8.86339C10.4413 8.30078 11.2044 7.98471 12.0001 7.98471C12.4455 7.98644 12.8849 8.089 13.2851 8.28471L9.30005 12.2697C9.10434 11.8695 9.00178 11.4302 9.00005 10.9847ZM21.5671 12.5187C20.2331 14.6847 17.2181 18.3297 12.0001 18.3297C10.3398 18.339 8.70282 17.9389 7.23405 17.1647L9.24705 15.1517C10.2071 15.7891 11.3581 16.0747 12.5048 15.9601C13.6515 15.8454 14.7232 15.3376 15.538 14.5227C16.3529 13.7078 16.8608 12.6362 16.9754 11.4895C17.0901 10.3428 16.8044 9.19178 16.1671 8.23171L18.4771 5.92171C19.7019 6.91199 20.7472 8.10576 21.5671 9.45071C21.8519 9.91167 22.0028 10.4428 22.0028 10.9847C22.0028 11.5266 21.8519 12.0578 21.5671 12.5187Z" fill="#F5F5F5"/>
</svg>
