<svg width="20" height="20" viewBox="0 0 20 20" fill="none"
     xmlns="http://www.w3.org/2000/svg">
    <path d="M20.0001 9.99986C20.0001 8.64487 19.4051 7.36653 18.3959 6.5632C18.5126 5.21153 18.0292 3.88736 17.0709 2.9282C16.1126 1.9707 14.7917 1.4882 13.5067 1.63236C11.8284 -0.497636 8.20258 -0.537636 6.56341 1.6032C5.21008 1.4832 3.88758 1.96903 2.92924 2.9282C1.97174 3.88653 1.48841 5.21153 1.63341 6.49236C-0.496588 8.1707 -0.537422 11.7965 1.60424 13.4365C1.48758 14.7882 1.97091 16.1124 2.92924 17.0715C3.88758 18.029 5.21008 18.5132 6.49341 18.3674C8.17174 20.4974 11.7976 20.5374 13.4367 18.3965C14.7867 18.5099 16.1117 18.0307 17.0709 17.0715C18.0284 16.1132 18.5117 14.7882 18.3667 13.5074C19.4051 12.634 20.0001 11.3557 20.0001 10.0007V9.99986ZM14.6167 8.80486L10.6676 12.6115C9.69841 13.579 8.11258 13.5707 7.14341 12.6007L5.26674 10.8574C4.93008 10.544 4.91008 10.0165 5.22341 9.67986C5.53758 9.34237 6.06591 9.32403 6.40091 9.63653L8.29924 11.4007C8.64758 11.7482 9.17424 11.7474 9.49924 11.4215L13.4592 7.60403C13.7909 7.2857 14.3184 7.29486 14.6376 7.6257C14.9576 7.95653 14.9476 8.48486 14.6167 8.80403V8.80486Z"
          fill="#4BBBE4"/>
</svg>
