<svg width="35" height="35" viewBox="0 0 35 35" fill="none" xmlns="http://www.w3.org/2000/svg">
<g clip-path="url(#clip0_190_422)">
<path d="M17.5 0C7.85021 0 0 7.85021 0 17.5C0 27.1498 7.85021 35 17.5 35C27.1498 35 35 27.1498 35 17.5C35 7.85021 27.1498 0 17.5 0ZM17.5 33.5417C8.65521 33.5417 1.45833 26.3448 1.45833 17.5C1.45833 8.65521 8.65521 1.45833 17.5 1.45833C26.3448 1.45833 33.5417 8.65521 33.5417 17.5C33.5417 26.3448 26.3448 33.5417 17.5 33.5417Z" fill="#4D5869"/>
<path d="M21.3805 13.8948L17.2549 9.69626C16.972 9.40897 16.5111 9.40459 16.2238 9.68751C15.9366 9.96897 15.9322 10.4313 16.2151 10.7186L20.3451 14.9215C20.6178 15.1956 20.9984 15.6142 21.3863 16.0488C22.1184 16.8756 22.1184 18.1211 21.3863 18.9465C20.9984 19.384 20.6178 19.8025 20.3407 20.0796L16.2151 24.2781C15.9322 24.5654 15.9366 25.0277 16.2238 25.3092C16.3668 25.4492 16.5505 25.5192 16.7357 25.5192C16.9238 25.5192 17.1134 25.4463 17.2549 25.3019L21.3761 21.1077C21.6649 20.8204 22.0674 20.3786 22.4786 19.9148C23.6978 18.5381 23.6978 16.4615 22.4786 15.0833C22.0674 14.6211 21.6649 14.1792 21.382 13.8963L21.3805 13.8948Z" fill="#4D5869"/>
</g>
<defs>
<clipPath id="clip0_190_422">
<rect width="35" height="35" fill="white"/>
</clipPath>
</defs>
</svg>
