<svg width="35" height="35" viewBox="0 0 35 35" fill="none" xmlns="http://www.w3.org/2000/svg">
<g clip-path="url(#clip0_190_418)">
<path d="M17.5 35C27.1498 35 35 27.1498 35 17.5C35 7.85021 27.1498 0 17.5 0C7.85021 0 0 7.85021 0 17.5C0 27.1498 7.85021 35 17.5 35ZM17.5 1.45833C26.3448 1.45833 33.5417 8.65521 33.5417 17.5C33.5417 26.3448 26.3448 33.5417 17.5 33.5417C8.65521 33.5417 1.45833 26.3448 1.45833 17.5C1.45833 8.65521 8.65521 1.45833 17.5 1.45833Z" fill="#4D5869"/>
<path d="M13.6195 21.1052L17.7451 25.3037C18.028 25.591 18.4889 25.5954 18.7762 25.3125C19.0634 25.031 19.0678 24.5687 18.7849 24.2814L14.6549 20.0785C14.3822 19.8044 14.0016 19.3858 13.6137 18.9512C12.8816 18.1244 12.8816 16.8789 13.6137 16.0535C14.0016 15.616 14.3822 15.1975 14.6593 14.9204L18.7849 10.7219C19.0678 10.4346 19.0634 9.97228 18.7762 9.69082C18.6332 9.55082 18.4495 9.48082 18.2643 9.48082C18.0762 9.48082 17.8866 9.55374 17.7451 9.69811L13.6239 13.8923C13.3351 14.1796 12.9326 14.6214 12.5214 15.0852C11.3022 16.4619 11.3022 18.5385 12.5214 19.9167C12.9326 20.3789 13.3351 20.8208 13.618 21.1037L13.6195 21.1052Z" fill="#4D5869"/>
</g>
<defs>
<clipPath id="clip0_190_418">
<rect width="35" height="35" fill="white" transform="matrix(-1 0 0 -1 35 35)"/>
</clipPath>
</defs>
</svg>
